<svg width="1400" height="100" viewBox="0 0 1400 100" fill="none" xmlns="http://www.w3.org/2000/svg">
<path d="M382.624 61.056C382.624 60.272 382.629 59.3107 382.638 58.172C382.647 57.0333 382.661 55.806 382.68 54.49C382.708 53.174 382.736 51.844 382.764 50.5C382.792 49.156 382.825 47.882 382.862 46.678C382.899 45.474 382.941 44.4193 382.988 43.514C383.389 43.4767 383.856 43.4487 384.388 43.43C384.929 43.402 385.461 43.3833 385.984 43.374C386.507 43.3553 386.95 43.346 387.314 43.346C387.678 43.3367 387.883 43.332 387.93 43.332C387.949 43.3693 388.019 43.6073 388.14 44.046C388.271 44.4847 388.439 45.054 388.644 45.754C388.849 46.454 389.069 47.224 389.302 48.064C389.545 48.904 389.787 49.7627 390.03 50.64C390.273 51.508 390.497 52.3293 390.702 53.104C390.917 53.8787 391.094 54.546 391.234 55.106C391.374 55.666 391.458 56.0487 391.486 56.254L391.038 56.31C391.141 56.03 391.29 55.5727 391.486 54.938C391.691 54.294 391.925 53.552 392.186 52.712C392.447 51.8627 392.713 50.9713 392.984 50.038C393.264 49.1047 393.53 48.1993 393.782 47.322C394.043 46.4353 394.267 45.6467 394.454 44.956C394.641 44.256 394.771 43.724 394.846 43.36C395.201 43.36 395.649 43.3693 396.19 43.388C396.731 43.4067 397.277 43.4347 397.828 43.472C398.379 43.5 398.831 43.5467 399.186 43.612C399.373 44.4707 399.503 45.586 399.578 46.958C399.653 48.3207 399.69 49.7673 399.69 51.298C399.69 52.4833 399.676 53.6873 399.648 54.91C399.62 56.1233 399.578 57.262 399.522 58.326C399.475 59.3807 399.424 60.2627 399.368 60.972C398.967 60.972 398.528 60.9673 398.052 60.958C397.585 60.9393 397.137 60.916 396.708 60.888C396.288 60.8507 395.952 60.8273 395.7 60.818C395.756 60.0993 395.803 59.2267 395.84 58.2C395.887 57.164 395.924 56.1 395.952 55.008C395.971 54.336 395.985 53.65 395.994 52.95C396.003 52.25 396.013 51.6107 396.022 51.032C396.031 50.444 396.036 49.996 396.036 49.688C395.933 50.08 395.779 50.598 395.574 51.242C395.378 51.886 395.154 52.5953 394.902 53.37C394.65 54.1447 394.384 54.9287 394.104 55.722C393.833 56.5153 393.572 57.2667 393.32 57.976C393.077 58.6853 392.858 59.2967 392.662 59.81C392.475 60.314 392.335 60.6593 392.242 60.846C392.121 60.8553 391.939 60.8647 391.696 60.874C391.463 60.874 391.281 60.874 391.15 60.874C390.917 60.874 390.679 60.8647 390.436 60.846C390.193 60.818 389.927 60.79 389.638 60.762C389.619 60.65 389.559 60.3933 389.456 59.992C389.353 59.5907 389.223 59.0867 389.064 58.48C388.905 57.8733 388.733 57.206 388.546 56.478C388.359 55.75 388.168 55.008 387.972 54.252C387.776 53.4867 387.58 52.7493 387.384 52.04C387.197 51.3307 387.025 50.6913 386.866 50.122C386.717 49.5433 386.591 49.086 386.488 48.75C386.488 49.646 386.488 50.6213 386.488 51.676C386.497 52.7213 386.502 53.762 386.502 54.798C386.502 55.834 386.502 56.7907 386.502 57.668C386.511 58.5453 386.516 59.2827 386.516 59.88C386.516 60.468 386.516 60.8367 386.516 60.986C386.227 60.9953 385.858 61.0047 385.41 61.014C384.962 61.0233 384.495 61.0327 384.01 61.042C383.525 61.0513 383.063 61.056 382.624 61.056ZM411.845 47.21C412.05 47.1353 412.34 47.0793 412.713 47.042C413.096 47.0047 413.469 46.986 413.833 46.986C414.132 46.986 414.463 47 414.827 47.028C415.2 47.0467 415.504 47.0747 415.737 47.112C415.868 47.924 415.97 48.7453 416.045 49.576C416.12 50.3973 416.157 51.2093 416.157 52.012C416.157 53.3467 416.04 54.602 415.807 55.778C415.583 56.954 415.205 57.9947 414.673 58.9C414.15 59.796 413.45 60.496 412.573 61C411.696 61.5133 410.613 61.77 409.325 61.77C407.934 61.77 406.791 61.4993 405.895 60.958C404.999 60.4073 404.299 59.6467 403.795 58.676C403.3 57.696 402.955 56.562 402.759 55.274C402.563 53.9767 402.465 52.5813 402.465 51.088C402.465 50.3507 402.484 49.604 402.521 48.848C402.568 48.092 402.619 47.3407 402.675 46.594C402.89 46.5753 403.17 46.566 403.515 46.566C403.87 46.5567 404.192 46.552 404.481 46.552C404.892 46.5613 405.298 46.5893 405.699 46.636C406.11 46.6827 406.436 46.7433 406.679 46.818C406.604 47.518 406.539 48.2507 406.483 49.016C406.436 49.772 406.413 50.5233 406.413 51.27C406.413 52.642 406.516 53.8507 406.721 54.896C406.926 55.932 407.248 56.7393 407.687 57.318C408.126 57.8967 408.7 58.186 409.409 58.186C410.081 58.186 410.627 57.9247 411.047 57.402C411.476 56.8793 411.789 56.156 411.985 55.232C412.19 54.2987 412.293 53.2253 412.293 52.012C412.293 51.1907 412.251 50.3647 412.167 49.534C412.083 48.694 411.976 47.9193 411.845 47.21ZM425.015 61.252C423.858 61.252 422.803 61.098 421.851 60.79C420.899 60.482 420.139 59.978 419.569 59.278C419.009 58.5687 418.729 57.6353 418.729 56.478C418.729 55.3207 419.051 54.3873 419.695 53.678C420.349 52.9593 421.212 52.4367 422.285 52.11C423.359 51.774 424.535 51.606 425.813 51.606C426.336 51.606 426.845 51.6433 427.339 51.718C427.834 51.7927 428.268 51.886 428.641 51.998C429.015 52.1007 429.276 52.1987 429.425 52.292C429.407 52.0213 429.355 51.7413 429.271 51.452C429.187 51.1627 429.061 50.9153 428.893 50.71C428.595 50.2527 428.17 49.87 427.619 49.562C427.078 49.254 426.373 49.1 425.505 49.1C424.619 49.1 423.849 49.296 423.195 49.688C422.542 50.08 422.052 50.5327 421.725 51.046L418.687 49.086C419.107 48.4887 419.667 47.9613 420.367 47.504C421.067 47.0467 421.865 46.692 422.761 46.44C423.657 46.1787 424.609 46.048 425.617 46.048C427.241 46.048 428.567 46.328 429.593 46.888C430.62 47.448 431.376 48.2133 431.861 49.184C432.095 49.66 432.286 50.1827 432.435 50.752C432.585 51.3213 432.683 51.9933 432.729 52.768C432.757 53.4867 432.781 54.1353 432.799 54.714C432.818 55.2927 432.841 55.82 432.869 56.296C432.888 56.9773 432.967 57.4207 433.107 57.626C433.257 57.822 433.457 57.92 433.709 57.92C433.98 57.92 434.213 57.8313 434.409 57.654C434.605 57.4767 434.727 57.234 434.773 56.926L436.187 59.278C436.103 59.8287 435.819 60.272 435.333 60.608C434.848 60.9347 434.255 61.098 433.555 61.098C433.023 61.098 432.533 61.0047 432.085 60.818C431.637 60.622 431.269 60.37 430.979 60.062C430.699 59.7447 430.536 59.3993 430.489 59.026C430.321 59.3713 429.99 59.7167 429.495 60.062C429.001 60.4073 428.375 60.692 427.619 60.916C426.863 61.14 425.995 61.252 425.015 61.252ZM425.799 58.326C426.294 58.326 426.793 58.2513 427.297 58.102C427.801 57.9527 428.259 57.7567 428.669 57.514C429.089 57.2713 429.421 57.0193 429.663 56.758C429.645 56.366 429.631 55.9927 429.621 55.638C429.621 55.2833 429.626 54.9707 429.635 54.7C429.411 54.616 428.977 54.518 428.333 54.406C427.699 54.2847 427.013 54.224 426.275 54.224C425.622 54.224 425.015 54.3033 424.455 54.462C423.905 54.6113 423.457 54.84 423.111 55.148C422.775 55.4467 422.607 55.8247 422.607 56.282C422.607 56.8047 422.738 57.2153 422.999 57.514C423.27 57.8127 423.643 58.0227 424.119 58.144C424.605 58.2653 425.165 58.326 425.799 58.326ZM449.658 61.196C449.462 61.224 449.191 61.2473 448.846 61.266C448.51 61.2847 448.155 61.294 447.782 61.294C447.371 61.294 446.979 61.2753 446.606 61.238C446.232 61.21 445.957 61.168 445.78 61.112C445.864 60.5147 445.934 59.7493 445.99 58.816C446.055 57.8827 446.106 56.8373 446.144 55.68C446.181 54.5227 446.2 53.314 446.2 52.054C446.2 50.8033 446.181 49.5387 446.144 48.26C446.106 46.9813 446.055 45.7493 445.99 44.564C445.934 43.3693 445.873 42.2773 445.808 41.288C445.882 41.26 446.069 41.2227 446.368 41.176C446.676 41.12 447.026 41.064 447.418 41.008C447.819 40.952 448.197 40.9053 448.552 40.868C448.906 40.8213 449.177 40.798 449.364 40.798C449.504 41.498 449.625 42.3473 449.728 43.346C449.84 44.3447 449.928 45.4367 449.994 46.622C450.068 47.798 450.12 49.016 450.148 50.276C450.465 49.912 450.871 49.576 451.366 49.268C451.87 48.9507 452.42 48.6987 453.018 48.512C453.615 48.3253 454.212 48.232 454.81 48.232C455.911 48.232 456.76 48.456 457.358 48.904C457.964 49.352 458.389 49.9913 458.632 50.822C458.874 51.6527 458.996 52.6513 458.996 53.818C458.996 54.5553 458.968 55.3533 458.912 56.212C458.856 57.0613 458.781 57.906 458.688 58.746C458.594 59.5767 458.496 60.3327 458.394 61.014C458.104 61.0513 457.801 61.0793 457.484 61.098C457.176 61.126 456.868 61.14 456.56 61.14C456.224 61.14 455.888 61.126 455.552 61.098C455.225 61.07 454.931 61.028 454.67 60.972C454.735 60.5427 454.805 60.048 454.88 59.488C454.954 58.9187 455.024 58.3353 455.09 57.738C455.155 57.1313 455.206 56.548 455.244 55.988C455.29 55.428 455.314 54.938 455.314 54.518C455.314 53.9113 455.258 53.3887 455.146 52.95C455.034 52.5113 454.842 52.1753 454.572 51.942C454.31 51.6993 453.942 51.578 453.466 51.578C453.064 51.578 452.682 51.6573 452.318 51.816C451.963 51.9747 451.636 52.1707 451.338 52.404C451.048 52.628 450.796 52.852 450.582 53.076C450.376 53.3 450.227 53.482 450.134 53.622C450.134 54.6113 450.11 55.6007 450.064 56.59C450.017 57.5793 449.956 58.48 449.882 59.292C449.816 60.104 449.742 60.7387 449.658 61.196ZM467.48 61.252C466.323 61.252 465.268 61.098 464.316 60.79C463.364 60.482 462.604 59.978 462.034 59.278C461.474 58.5687 461.194 57.6353 461.194 56.478C461.194 55.3207 461.516 54.3873 462.16 53.678C462.814 52.9593 463.677 52.4367 464.75 52.11C465.824 51.774 467 51.606 468.278 51.606C468.801 51.606 469.31 51.6433 469.804 51.718C470.299 51.7927 470.733 51.886 471.106 51.998C471.48 52.1007 471.741 52.1987 471.89 52.292C471.872 52.0213 471.82 51.7413 471.736 51.452C471.652 51.1627 471.526 50.9153 471.358 50.71C471.06 50.2527 470.635 49.87 470.084 49.562C469.543 49.254 468.838 49.1 467.97 49.1C467.084 49.1 466.314 49.296 465.66 49.688C465.007 50.08 464.517 50.5327 464.19 51.046L461.152 49.086C461.572 48.4887 462.132 47.9613 462.832 47.504C463.532 47.0467 464.33 46.692 465.226 46.44C466.122 46.1787 467.074 46.048 468.082 46.048C469.706 46.048 471.032 46.328 472.058 46.888C473.085 47.448 473.841 48.2133 474.326 49.184C474.56 49.66 474.751 50.1827 474.9 50.752C475.05 51.3213 475.148 51.9933 475.194 52.768C475.222 53.4867 475.246 54.1353 475.264 54.714C475.283 55.2927 475.306 55.82 475.334 56.296C475.353 56.9773 475.432 57.4207 475.572 57.626C475.722 57.822 475.922 57.92 476.174 57.92C476.445 57.92 476.678 57.8313 476.874 57.654C477.07 57.4767 477.192 57.234 477.238 56.926L478.652 59.278C478.568 59.8287 478.284 60.272 477.798 60.608C477.313 60.9347 476.72 61.098 476.02 61.098C475.488 61.098 474.998 61.0047 474.55 60.818C474.102 60.622 473.734 60.37 473.444 60.062C473.164 59.7447 473.001 59.3993 472.954 59.026C472.786 59.3713 472.455 59.7167 471.96 60.062C471.466 60.4073 470.84 60.692 470.084 60.916C469.328 61.14 468.46 61.252 467.48 61.252ZM468.264 58.326C468.759 58.326 469.258 58.2513 469.762 58.102C470.266 57.9527 470.724 57.7567 471.134 57.514C471.554 57.2713 471.886 57.0193 472.128 56.758C472.11 56.366 472.096 55.9927 472.086 55.638C472.086 55.2833 472.091 54.9707 472.1 54.7C471.876 54.616 471.442 54.518 470.798 54.406C470.164 54.2847 469.478 54.224 468.74 54.224C468.087 54.224 467.48 54.3033 466.92 54.462C466.37 54.6113 465.922 54.84 465.576 55.148C465.24 55.4467 465.072 55.8247 465.072 56.282C465.072 56.8047 465.203 57.2153 465.464 57.514C465.735 57.8127 466.108 58.0227 466.584 58.144C467.07 58.2653 467.63 58.326 468.264 58.326ZM465.464 40.21C465.67 40.238 466.015 40.3407 466.5 40.518C466.986 40.686 467.527 40.9147 468.124 41.204C468.731 41.4933 469.319 41.8153 469.888 42.17C470.458 42.5153 470.938 42.87 471.33 43.234C471.209 43.4487 471.041 43.682 470.826 43.934C470.612 44.186 470.406 44.41 470.21 44.606C470.024 44.802 469.884 44.9233 469.79 44.97C469.482 44.7927 469.062 44.5967 468.53 44.382C467.998 44.158 467.42 43.9387 466.794 43.724C466.178 43.5093 465.572 43.3087 464.974 43.122C464.386 42.9353 463.868 42.786 463.42 42.674C463.495 42.562 463.63 42.3613 463.826 42.072C464.032 41.7827 464.279 41.47 464.568 41.134C464.858 40.7887 465.156 40.4807 465.464 40.21ZM483.705 61.182C483.453 61.1913 483.15 61.1913 482.795 61.182C482.44 61.182 482.076 61.182 481.703 61.182C481.395 61.1633 481.04 61.1447 480.639 61.126C480.247 61.1167 479.967 61.1027 479.799 61.084C479.892 60.3 479.967 59.4273 480.023 58.466C480.088 57.4953 480.14 56.4173 480.177 55.232C480.224 54.0467 480.256 52.7353 480.275 51.298C480.294 49.8513 480.303 48.26 480.303 46.524C480.62 46.4773 480.994 46.4447 481.423 46.426C481.852 46.398 482.282 46.384 482.711 46.384C483.019 46.384 483.313 46.3933 483.593 46.412C483.882 46.4213 484.134 46.4447 484.349 46.482C484.358 46.566 484.363 46.7387 484.363 47C484.363 47.2613 484.363 47.5507 484.363 47.868C484.363 48.176 484.358 48.4513 484.349 48.694C484.629 48.3393 485.054 47.966 485.623 47.574C486.202 47.1727 486.864 46.8367 487.611 46.566C488.367 46.2953 489.132 46.16 489.907 46.16C491.335 46.16 492.422 46.4447 493.169 47.014C493.925 47.5833 494.438 48.4327 494.709 49.562C494.989 50.6913 495.129 52.1007 495.129 53.79C495.129 54.406 495.11 55.1153 495.073 55.918C495.045 56.7113 494.994 57.5513 494.919 58.438C494.854 59.3153 494.77 60.1833 494.667 61.042C494.499 61.0607 494.233 61.0747 493.869 61.084C493.514 61.1027 493.136 61.112 492.735 61.112C492.324 61.112 491.928 61.1027 491.545 61.084C491.172 61.0747 490.892 61.0607 490.705 61.042C490.808 60.426 490.915 59.7167 491.027 58.914C491.148 58.102 491.246 57.2573 491.321 56.38C491.405 55.5027 491.447 54.6627 491.447 53.86C491.447 53.02 491.377 52.2873 491.237 51.662C491.106 51.0273 490.854 50.5373 490.481 50.192C490.108 49.8373 489.557 49.66 488.829 49.66C488.176 49.66 487.56 49.772 486.981 49.996C486.402 50.22 485.884 50.4907 485.427 50.808C484.97 51.1253 484.587 51.424 484.279 51.704C484.26 53.216 484.214 54.588 484.139 55.82C484.074 57.052 483.999 58.1207 483.915 59.026C483.84 59.9313 483.77 60.65 483.705 61.182ZM506.092 57.528C504.244 57.528 502.779 57.2527 501.696 56.702C500.614 56.1513 499.839 55.4467 499.372 54.588C498.915 53.72 498.686 52.81 498.686 51.858C498.686 50.6353 498.994 49.6087 499.61 48.778C500.226 47.938 501.066 47.3033 502.13 46.874C503.204 46.4353 504.412 46.216 505.756 46.216C507.95 46.216 509.602 46.7153 510.712 47.714C511.832 48.7033 512.392 50.0333 512.392 51.704C512.392 52.964 512.122 54.028 511.58 54.896C511.048 55.7547 510.311 56.408 509.368 56.856C508.426 57.304 507.334 57.528 506.092 57.528ZM505.42 67.986C503.992 67.986 502.695 67.8507 501.528 67.58C500.362 67.3093 499.433 66.8333 498.742 66.152C498.061 65.48 497.72 64.5327 497.72 63.31C497.72 62.5447 497.963 61.84 498.448 61.196C498.934 60.552 499.629 60.0247 500.534 59.614C501.44 59.2033 502.513 58.9653 503.754 58.9C504.342 58.872 504.963 58.8533 505.616 58.844C506.279 58.8253 507.021 58.816 507.842 58.816C509.326 58.816 510.544 59.138 511.496 59.782C512.458 60.4167 512.938 61.4387 512.938 62.848C512.938 64.08 512.612 65.074 511.958 65.83C511.314 66.586 510.428 67.132 509.298 67.468C508.169 67.8133 506.876 67.986 505.42 67.986ZM505.574 65.564C506.265 65.564 506.886 65.4893 507.436 65.34C507.996 65.2 508.44 64.9713 508.766 64.654C509.093 64.346 509.256 63.926 509.256 63.394C509.256 62.9367 509.126 62.582 508.864 62.33C508.603 62.078 508.272 61.9007 507.87 61.798C507.478 61.6953 507.082 61.644 506.68 61.644C506.4 61.644 506.074 61.644 505.7 61.644C505.336 61.644 504.986 61.644 504.65 61.644C504.314 61.644 504.039 61.644 503.824 61.644C503.46 61.644 503.11 61.6953 502.774 61.798C502.448 61.9007 502.177 62.0827 501.962 62.344C501.748 62.6147 501.64 62.9927 501.64 63.478C501.64 63.982 501.813 64.388 502.158 64.696C502.513 65.004 502.984 65.2233 503.572 65.354C504.17 65.494 504.837 65.564 505.574 65.564ZM502.158 60.244C500.964 60.0107 500.119 59.6607 499.624 59.194C499.13 58.718 498.882 58.2047 498.882 57.654C498.882 57.234 498.976 56.8653 499.162 56.548C499.358 56.2213 499.596 55.9553 499.876 55.75C500.166 55.5447 500.45 55.4093 500.73 55.344L503.138 56.604C502.746 56.7347 502.457 56.9027 502.27 57.108C502.093 57.3133 502.004 57.5233 502.004 57.738C502.004 58.0273 502.158 58.2933 502.466 58.536C502.774 58.7787 503.204 58.9 503.754 58.9L502.158 60.244ZM505.728 54.56C506.438 54.56 507.021 54.448 507.478 54.224C507.945 53.9907 508.29 53.6593 508.514 53.23C508.748 52.7913 508.864 52.2733 508.864 51.676C508.864 51.172 508.734 50.7287 508.472 50.346C508.211 49.9633 507.861 49.6647 507.422 49.45C506.984 49.226 506.489 49.114 505.938 49.114C505.042 49.114 504.263 49.3147 503.6 49.716C502.947 50.108 502.62 50.7847 502.62 51.746C502.62 52.642 502.91 53.3373 503.488 53.832C504.076 54.3173 504.823 54.56 505.728 54.56ZM511.104 49.59L508.934 47.77C509.065 47.406 509.28 47.0187 509.578 46.608C509.886 46.1973 510.232 45.8147 510.614 45.46C511.006 45.1053 511.38 44.83 511.734 44.634C511.846 44.8113 512.014 45.0587 512.238 45.376C512.462 45.684 512.696 45.9967 512.938 46.314C513.181 46.6313 513.382 46.888 513.54 47.084C513.344 47.1867 513.125 47.3313 512.882 47.518C512.64 47.6953 512.397 47.9007 512.154 48.134C511.912 48.358 511.697 48.596 511.51 48.848C511.324 49.1 511.188 49.3473 511.104 49.59ZM535.39 58.914C535.222 59.2873 534.961 59.6887 534.606 60.118C534.261 60.538 533.803 60.8927 533.234 61.182C532.665 61.4807 531.955 61.63 531.106 61.63C530.005 61.63 529.113 61.3967 528.432 60.93C527.751 60.4633 527.251 59.8427 526.934 59.068C526.626 58.284 526.472 57.43 526.472 56.506C526.472 56.0113 526.477 55.47 526.486 54.882C526.505 54.2847 526.523 53.6827 526.542 53.076C526.561 52.46 526.579 51.8767 526.598 51.326C526.626 50.7753 526.649 50.29 526.668 49.87C526.696 49.4407 526.715 49.114 526.724 48.89C525.931 48.974 525.212 49.0673 524.568 49.17C523.924 49.2633 523.495 49.3333 523.28 49.38C523.196 48.9413 523.131 48.484 523.084 48.008C523.047 47.532 523.019 47.1167 523 46.762C522.981 46.4073 522.972 46.1833 522.972 46.09C523.504 46.0153 524.092 45.9453 524.736 45.88C525.38 45.8053 526.043 45.7493 526.724 45.712C526.715 45.4413 526.705 45.0587 526.696 44.564C526.696 44.0693 526.691 43.6167 526.682 43.206C526.673 42.842 526.654 42.4827 526.626 42.128C526.598 41.764 526.575 41.4653 526.556 41.232L530.196 40.938C530.196 41.0593 530.201 41.3487 530.21 41.806C530.229 42.254 530.238 42.7953 530.238 43.43C530.238 43.71 530.238 44.046 530.238 44.438C530.247 44.8207 530.252 45.1847 530.252 45.53C530.56 45.5113 530.919 45.4927 531.33 45.474C531.741 45.4553 532.067 45.4413 532.31 45.432C532.721 45.4133 533.099 45.404 533.444 45.404C533.789 45.404 534.079 45.4087 534.312 45.418C534.545 45.418 534.699 45.418 534.774 45.418C534.83 45.8007 534.863 46.2953 534.872 46.902C534.891 47.4993 534.9 48.0173 534.9 48.456C534.807 48.4467 534.499 48.4467 533.976 48.456C533.453 48.4653 532.94 48.4793 532.436 48.498C532.072 48.5073 531.675 48.526 531.246 48.554C530.817 48.582 530.467 48.61 530.196 48.638C530.187 48.8433 530.173 49.142 530.154 49.534C530.135 49.9167 530.117 50.3507 530.098 50.836C530.089 51.312 530.075 51.802 530.056 52.306C530.037 52.81 530.023 53.2907 530.014 53.748C530.005 54.2053 530 54.5973 530 54.924C530 55.5307 530.033 56.086 530.098 56.59C530.163 57.094 530.308 57.5 530.532 57.808C530.765 58.1067 531.125 58.256 531.61 58.256C531.937 58.256 532.207 58.1533 532.422 57.948C532.637 57.7427 532.809 57.5047 532.94 57.234C533.08 56.9633 533.197 56.7253 533.29 56.52C533.393 56.66 533.547 56.8513 533.752 57.094C533.957 57.3273 534.172 57.57 534.396 57.822C534.629 58.074 534.835 58.3027 535.012 58.508C535.199 58.704 535.325 58.8393 535.39 58.914ZM543.578 61.252C542.421 61.252 541.366 61.098 540.414 60.79C539.462 60.482 538.701 59.978 538.132 59.278C537.572 58.5687 537.292 57.6353 537.292 56.478C537.292 55.3207 537.614 54.3873 538.258 53.678C538.911 52.9593 539.775 52.4367 540.848 52.11C541.921 51.774 543.097 51.606 544.376 51.606C544.899 51.606 545.407 51.6433 545.902 51.718C546.397 51.7927 546.831 51.886 547.204 51.998C547.577 52.1007 547.839 52.1987 547.988 52.292C547.969 52.0213 547.918 51.7413 547.834 51.452C547.75 51.1627 547.624 50.9153 547.456 50.71C547.157 50.2527 546.733 49.87 546.182 49.562C545.641 49.254 544.936 49.1 544.068 49.1C543.181 49.1 542.411 49.296 541.758 49.688C541.105 50.08 540.615 50.5327 540.288 51.046L537.25 49.086C537.67 48.4887 538.23 47.9613 538.93 47.504C539.63 47.0467 540.428 46.692 541.324 46.44C542.22 46.1787 543.172 46.048 544.18 46.048C545.804 46.048 547.129 46.328 548.156 46.888C549.183 47.448 549.939 48.2133 550.424 49.184C550.657 49.66 550.849 50.1827 550.998 50.752C551.147 51.3213 551.245 51.9933 551.292 52.768C551.32 53.4867 551.343 54.1353 551.362 54.714C551.381 55.2927 551.404 55.82 551.432 56.296C551.451 56.9773 551.53 57.4207 551.67 57.626C551.819 57.822 552.02 57.92 552.272 57.92C552.543 57.92 552.776 57.8313 552.972 57.654C553.168 57.4767 553.289 57.234 553.336 56.926L554.75 59.278C554.666 59.8287 554.381 60.272 553.896 60.608C553.411 60.9347 552.818 61.098 552.118 61.098C551.586 61.098 551.096 61.0047 550.648 60.818C550.2 60.622 549.831 60.37 549.542 60.062C549.262 59.7447 549.099 59.3993 549.052 59.026C548.884 59.3713 548.553 59.7167 548.058 60.062C547.563 60.4073 546.938 60.692 546.182 60.916C545.426 61.14 544.558 61.252 543.578 61.252ZM544.362 58.326C544.857 58.326 545.356 58.2513 545.86 58.102C546.364 57.9527 546.821 57.7567 547.232 57.514C547.652 57.2713 547.983 57.0193 548.226 56.758C548.207 56.366 548.193 55.9927 548.184 55.638C548.184 55.2833 548.189 54.9707 548.198 54.7C547.974 54.616 547.54 54.518 546.896 54.406C546.261 54.2847 545.575 54.224 544.838 54.224C544.185 54.224 543.578 54.3033 543.018 54.462C542.467 54.6113 542.019 54.84 541.674 55.148C541.338 55.4467 541.17 55.8247 541.17 56.282C541.17 56.8047 541.301 57.2153 541.562 57.514C541.833 57.8127 542.206 58.0227 542.682 58.144C543.167 58.2653 543.727 58.326 544.362 58.326ZM544.978 62.988C545.575 62.988 546.065 63.1513 546.448 63.478C546.831 63.814 547.022 64.234 547.022 64.738C547.022 65.27 546.854 65.7367 546.518 66.138C546.182 66.5393 545.748 66.74 545.216 66.74C544.619 66.74 544.101 66.586 543.662 66.278C543.233 65.9793 543.018 65.5593 543.018 65.018C543.018 64.346 543.205 63.8373 543.578 63.492C543.951 63.156 544.418 62.988 544.978 62.988ZM560.223 60.986C560.073 60.9953 559.803 61.014 559.411 61.042C559.019 61.07 558.613 61.084 558.193 61.084C557.857 61.084 557.525 61.0747 557.199 61.056C556.872 61.0373 556.555 61.0093 556.247 60.972C556.293 60.7293 556.345 60.23 556.401 59.474C556.457 58.718 556.513 57.8267 556.569 56.8C556.634 55.7733 556.695 54.714 556.751 53.622C556.807 52.5207 556.849 51.494 556.877 50.542C556.914 49.5807 556.933 48.8153 556.933 48.246C557.091 48.2367 557.329 48.2227 557.647 48.204C557.964 48.1853 558.309 48.1713 558.683 48.162C559.056 48.1433 559.411 48.1293 559.747 48.12C560.083 48.1107 560.344 48.106 560.531 48.106C560.577 48.386 560.61 48.8247 560.629 49.422C560.657 50.0193 560.671 50.6913 560.671 51.438C560.671 52.2967 560.657 53.216 560.629 54.196C560.61 55.1667 560.582 56.114 560.545 57.038C560.507 57.962 560.456 58.7787 560.391 59.488C560.335 60.188 560.279 60.6873 560.223 60.986ZM558.893 46.174C558.118 46.174 557.479 45.9453 556.975 45.488C556.471 45.0307 556.219 44.438 556.219 43.71C556.219 43.1967 556.34 42.7627 556.583 42.408C556.825 42.044 557.143 41.7687 557.535 41.582C557.927 41.386 558.342 41.288 558.781 41.288C559.49 41.288 560.069 41.526 560.517 42.002C560.974 42.4687 561.203 43.066 561.203 43.794C561.203 44.4567 560.983 45.0213 560.545 45.488C560.115 45.9453 559.565 46.174 558.893 46.174ZM577.689 60.902C576.691 60.902 575.869 60.6733 575.225 60.216C574.581 59.7493 574.077 59.1147 573.713 58.312C573.349 57.5 573.093 56.5667 572.943 55.512C572.794 54.4573 572.719 53.342 572.719 52.166C572.719 51.1953 572.757 50.2013 572.831 49.184C572.906 48.1573 572.99 47.154 573.083 46.174C573.606 46.174 574.199 46.188 574.861 46.216C575.533 46.244 576.135 46.2767 576.667 46.314C576.565 47.4433 576.481 48.526 576.415 49.562C576.359 50.598 576.331 51.5547 576.331 52.432C576.331 53.384 576.383 54.224 576.485 54.952C576.597 55.68 576.779 56.2447 577.031 56.646C577.293 57.0473 577.643 57.248 578.081 57.248C578.473 57.248 578.809 57.0753 579.089 56.73C579.379 56.3753 579.612 55.8853 579.789 55.26C579.967 54.6253 580.097 53.8927 580.181 53.062C580.275 52.2313 580.321 51.3353 580.321 50.374C580.321 49.7953 580.317 49.1513 580.307 48.442C580.298 47.7327 580.279 47.0607 580.251 46.426C580.503 46.426 580.839 46.4307 581.259 46.44C581.679 46.44 582.104 46.4447 582.533 46.454C582.963 46.4633 583.308 46.4773 583.569 46.496C583.569 46.8787 583.569 47.2613 583.569 47.644C583.569 48.0173 583.569 48.3907 583.569 48.764C583.569 50.1173 583.588 51.34 583.625 52.432C583.663 53.524 583.742 54.462 583.863 55.246C583.994 56.0207 584.19 56.618 584.451 57.038C584.722 57.4487 585.091 57.654 585.557 57.654C585.996 57.654 586.365 57.4627 586.663 57.08C586.962 56.688 587.205 56.1513 587.391 55.47C587.578 54.7793 587.709 53.986 587.783 53.09C587.867 52.1847 587.909 51.2187 587.909 50.192C587.909 49.8373 587.905 49.45 587.895 49.03C587.895 48.6007 587.891 48.162 587.881 47.714C587.872 47.266 587.863 46.8367 587.853 46.426C588.087 46.426 588.343 46.426 588.623 46.426C588.903 46.426 589.183 46.426 589.463 46.426C589.725 46.426 590.037 46.4353 590.401 46.454C590.775 46.4727 591.064 46.4913 591.269 46.51C591.307 46.8647 591.335 47.294 591.353 47.798C591.381 48.2927 591.405 48.7873 591.423 49.282C591.442 49.7673 591.451 50.1827 591.451 50.528C591.451 51.6667 591.381 52.7493 591.241 53.776C591.111 54.7933 590.905 55.7313 590.625 56.59C590.355 57.4487 589.995 58.1907 589.547 58.816C589.099 59.4413 588.558 59.9267 587.923 60.272C587.289 60.6173 586.551 60.79 585.711 60.79C585.002 60.79 584.405 60.6733 583.919 60.44C583.434 60.1973 583.037 59.8847 582.729 59.502C582.431 59.1193 582.197 58.7087 582.029 58.27C581.871 57.822 581.754 57.3927 581.679 56.982C581.614 56.5713 581.572 56.2213 581.553 55.932L582.267 56.044C582.249 56.5013 582.141 57.01 581.945 57.57C581.759 58.1207 581.479 58.6527 581.105 59.166C580.741 59.67 580.275 60.0853 579.705 60.412C579.145 60.7387 578.473 60.902 577.689 60.902ZM607.517 58.284C607.283 58.5827 606.971 58.8953 606.579 59.222C606.196 59.5393 605.734 59.8333 605.193 60.104C604.651 60.3653 604.026 60.58 603.317 60.748C602.607 60.916 601.814 61 600.937 61C599.527 61 598.281 60.7247 597.199 60.174C596.125 59.6233 595.285 58.816 594.679 57.752C594.081 56.6787 593.783 55.3533 593.783 53.776C593.783 52.2173 594.1 50.864 594.735 49.716C595.369 48.5587 596.251 47.6627 597.381 47.028C598.51 46.3933 599.817 46.076 601.301 46.076C603.177 46.076 604.651 46.6173 605.725 47.7C606.798 48.7733 607.372 50.248 607.447 52.124C607.456 52.4507 607.451 52.754 607.433 53.034C607.423 53.3047 607.395 53.5987 607.349 53.916C607.218 53.9067 606.938 53.8973 606.509 53.888C606.079 53.8693 605.589 53.8553 605.039 53.846C604.488 53.8273 603.956 53.8133 603.443 53.804C602.939 53.7947 602.542 53.79 602.253 53.79C601.403 53.79 600.559 53.832 599.719 53.916C598.879 53.9907 598.16 54.0747 597.563 54.168C597.563 54.364 597.577 54.5553 597.605 54.742C597.633 54.9287 597.67 55.106 597.717 55.274C597.857 55.722 598.095 56.1093 598.431 56.436C598.776 56.7533 599.187 56.996 599.663 57.164C600.148 57.332 600.657 57.416 601.189 57.416C601.702 57.416 602.164 57.346 602.575 57.206C602.985 57.066 603.349 56.8887 603.667 56.674C603.993 56.4593 604.278 56.2353 604.521 56.002C604.763 55.7687 604.978 55.5633 605.165 55.386C605.221 55.4327 605.351 55.5587 605.557 55.764C605.762 55.9693 605.995 56.2167 606.257 56.506C606.518 56.7953 606.761 57.0987 606.985 57.416C607.218 57.7333 607.395 58.0227 607.517 58.284ZM597.675 51.802C598.179 51.718 598.785 51.6433 599.495 51.578C600.213 51.5127 601.039 51.48 601.973 51.48C602.467 51.48 602.897 51.4893 603.261 51.508C603.634 51.5173 603.895 51.5267 604.045 51.536C604.045 51.3027 604.012 51.0507 603.947 50.78C603.863 50.416 603.699 50.066 603.457 49.73C603.223 49.3847 602.915 49.1047 602.533 48.89C602.15 48.6753 601.688 48.568 601.147 48.568C600.475 48.568 599.882 48.7127 599.369 49.002C598.855 49.282 598.449 49.6693 598.151 50.164C597.861 50.6493 597.703 51.1953 597.675 51.802ZM610.391 61.126C610.363 60.7993 610.335 60.2533 610.307 59.488C610.279 58.7133 610.247 57.7987 610.209 56.744C610.172 55.68 610.13 54.5413 610.083 53.328C610.046 52.1147 610.013 50.892 609.985 49.66C609.957 48.428 609.929 47.266 609.901 46.174C609.873 45.0727 609.85 44.102 609.831 43.262C609.813 42.4127 609.803 41.778 609.803 41.358C609.934 41.33 610.34 41.26 611.021 41.148C611.712 41.0267 612.533 40.896 613.485 40.756C613.485 41.3813 613.495 42.2073 613.513 43.234C613.532 44.2607 613.56 45.3853 613.597 46.608C613.635 47.8213 613.686 49.0253 613.751 50.22C613.938 50.024 614.181 49.8093 614.479 49.576C614.778 49.3333 615.128 49.1047 615.529 48.89C615.931 48.666 616.369 48.484 616.845 48.344C617.321 48.1947 617.811 48.12 618.315 48.12C619.426 48.12 620.387 48.386 621.199 48.918C622.021 49.4407 622.651 50.206 623.089 51.214C623.537 52.2127 623.761 53.4213 623.761 54.84C623.761 56.7347 623.262 58.2327 622.263 59.334C621.265 60.426 619.902 60.972 618.175 60.972C617.485 60.972 616.873 60.8787 616.341 60.692C615.809 60.5053 615.366 60.2907 615.011 60.048C614.657 59.8053 614.4 59.5907 614.241 59.404C614.26 59.5813 614.274 59.8053 614.283 60.076C614.293 60.3373 614.302 60.58 614.311 60.804C614.33 61.028 614.339 61.182 614.339 61.266C613.658 61.2753 612.958 61.2707 612.239 61.252C611.521 61.2333 610.905 61.1913 610.391 61.126ZM614.143 56.548C614.293 56.6507 614.517 56.7813 614.815 56.94C615.114 57.0987 615.469 57.2387 615.879 57.36C616.29 57.4813 616.733 57.542 617.209 57.542C618.264 57.542 619.029 57.2853 619.505 56.772C619.991 56.2587 620.233 55.5353 620.233 54.602C620.233 54.0047 620.14 53.4587 619.953 52.964C619.767 52.46 619.482 52.0587 619.099 51.76C618.717 51.452 618.217 51.298 617.601 51.298C616.976 51.298 616.425 51.4147 615.949 51.648C615.473 51.872 615.067 52.1427 614.731 52.46C614.405 52.7773 614.143 53.0667 613.947 53.328C613.947 53.412 613.952 53.5613 613.961 53.776C613.98 53.9907 613.994 54.238 614.003 54.518C614.022 54.798 614.041 55.078 614.059 55.358C614.078 55.638 614.092 55.8853 614.101 56.1C614.12 56.3147 614.134 56.464 614.143 56.548ZM631.918 62.12C630.901 62.12 629.944 61.9893 629.048 61.728C628.162 61.476 627.387 61.1633 626.724 60.79C626.071 60.4073 625.581 60.0387 625.254 59.684C625.32 59.5253 625.427 59.2967 625.576 58.998C625.726 58.69 625.898 58.3633 626.094 58.018C626.3 57.6633 626.5 57.3367 626.696 57.038C626.902 56.73 627.084 56.5013 627.242 56.352C627.672 56.7627 628.152 57.1593 628.684 57.542C629.226 57.9247 629.786 58.2373 630.364 58.48C630.952 58.7227 631.512 58.844 632.044 58.844C632.502 58.844 632.912 58.7833 633.276 58.662C633.64 58.5313 633.93 58.3447 634.144 58.102C634.359 57.85 634.466 57.5467 634.466 57.192C634.466 56.7813 634.298 56.4033 633.962 56.058C633.626 55.7127 633.192 55.3953 632.66 55.106C632.128 54.8167 631.559 54.5553 630.952 54.322C630.159 54.0047 629.422 53.6453 628.74 53.244C628.068 52.8427 627.527 52.3433 627.116 51.746C626.715 51.1487 626.514 50.3973 626.514 49.492C626.514 48.5773 626.78 47.8073 627.312 47.182C627.854 46.5567 628.558 46.0853 629.426 45.768C630.304 45.4507 631.242 45.292 632.24 45.292C633.239 45.292 634.219 45.4273 635.18 45.698C636.142 45.9687 636.916 46.328 637.504 46.776C637.448 46.944 637.341 47.1913 637.182 47.518C637.024 47.8447 636.832 48.19 636.608 48.554C636.384 48.918 636.146 49.254 635.894 49.562C635.493 49.2447 634.989 48.9413 634.382 48.652C633.785 48.3627 633.146 48.218 632.464 48.218C632.091 48.218 631.722 48.26 631.358 48.344C630.994 48.428 630.696 48.5727 630.462 48.778C630.229 48.974 630.112 49.2447 630.112 49.59C630.112 49.9073 630.234 50.192 630.476 50.444C630.719 50.696 631.06 50.934 631.498 51.158C631.946 51.3727 632.464 51.5967 633.052 51.83C633.678 52.0633 634.289 52.334 634.886 52.642C635.493 52.95 636.039 53.314 636.524 53.734C637.019 54.154 637.411 54.6393 637.7 55.19C637.99 55.7313 638.134 56.3567 638.134 57.066C638.134 58.186 637.85 59.124 637.28 59.88C636.72 60.6267 635.969 61.1867 635.026 61.56C634.093 61.9333 633.057 62.12 631.918 62.12ZM644.606 60.986C644.456 60.9953 644.186 61.014 643.794 61.042C643.402 61.07 642.996 61.084 642.576 61.084C642.24 61.084 641.908 61.0747 641.582 61.056C641.255 61.0373 640.938 61.0093 640.63 60.972C640.676 60.7293 640.728 60.23 640.784 59.474C640.84 58.718 640.896 57.8267 640.952 56.8C641.017 55.7733 641.078 54.714 641.134 53.622C641.19 52.5207 641.232 51.494 641.26 50.542C641.297 49.5807 641.316 48.8153 641.316 48.246C641.474 48.2367 641.712 48.2227 642.03 48.204C642.347 48.1853 642.692 48.1713 643.066 48.162C643.439 48.1433 643.794 48.1293 644.13 48.12C644.466 48.1107 644.727 48.106 644.914 48.106C644.96 48.386 644.993 48.8247 645.012 49.422C645.04 50.0193 645.054 50.6913 645.054 51.438C645.054 52.2967 645.04 53.216 645.012 54.196C644.993 55.1667 644.965 56.114 644.928 57.038C644.89 57.962 644.839 58.7787 644.774 59.488C644.718 60.188 644.662 60.6873 644.606 60.986ZM643.276 46.174C642.501 46.174 641.862 45.9453 641.358 45.488C640.854 45.0307 640.602 44.438 640.602 43.71C640.602 43.1967 640.723 42.7627 640.966 42.408C641.208 42.044 641.526 41.7687 641.918 41.582C642.31 41.386 642.725 41.288 643.164 41.288C643.873 41.288 644.452 41.526 644.9 42.002C645.357 42.4687 645.586 43.066 645.586 43.794C645.586 44.4567 645.366 45.0213 644.928 45.488C644.498 45.9453 643.948 46.174 643.276 46.174ZM659.203 58.914C659.035 59.2873 658.773 59.6887 658.419 60.118C658.073 60.538 657.616 60.8927 657.047 61.182C656.477 61.4807 655.768 61.63 654.919 61.63C653.817 61.63 652.926 61.3967 652.245 60.93C651.563 60.4633 651.064 59.8427 650.747 59.068C650.439 58.284 650.285 57.43 650.285 56.506C650.285 56.0113 650.289 55.47 650.299 54.882C650.317 54.2847 650.336 53.6827 650.355 53.076C650.373 52.46 650.392 51.8767 650.411 51.326C650.439 50.7753 650.462 50.29 650.481 49.87C650.509 49.4407 650.527 49.114 650.537 48.89C649.743 48.974 649.025 49.0673 648.381 49.17C647.737 49.2633 647.307 49.3333 647.093 49.38C647.009 48.9413 646.943 48.484 646.897 48.008C646.859 47.532 646.831 47.1167 646.813 46.762C646.794 46.4073 646.785 46.1833 646.785 46.09C647.317 46.0153 647.905 45.9453 648.549 45.88C649.193 45.8053 649.855 45.7493 650.537 45.712C650.527 45.4413 650.518 45.0587 650.509 44.564C650.509 44.0693 650.504 43.6167 650.495 43.206C650.485 42.842 650.467 42.4827 650.439 42.128C650.411 41.764 650.387 41.4653 650.369 41.232L654.009 40.938C654.009 41.0593 654.013 41.3487 654.023 41.806C654.041 42.254 654.051 42.7953 654.051 43.43C654.051 43.71 654.051 44.046 654.051 44.438C654.06 44.8207 654.065 45.1847 654.065 45.53C654.373 45.5113 654.732 45.4927 655.143 45.474C655.553 45.4553 655.88 45.4413 656.123 45.432C656.533 45.4133 656.911 45.404 657.257 45.404C657.602 45.404 657.891 45.4087 658.125 45.418C658.358 45.418 658.512 45.418 658.587 45.418C658.643 45.8007 658.675 46.2953 658.685 46.902C658.703 47.4993 658.713 48.0173 658.713 48.456C658.619 48.4467 658.311 48.4467 657.789 48.456C657.266 48.4653 656.753 48.4793 656.249 48.498C655.885 48.5073 655.488 48.526 655.059 48.554C654.629 48.582 654.279 48.61 654.009 48.638C653.999 48.8433 653.985 49.142 653.967 49.534C653.948 49.9167 653.929 50.3507 653.911 50.836C653.901 51.312 653.887 51.802 653.869 52.306C653.85 52.81 653.836 53.2907 653.827 53.748C653.817 54.2053 653.813 54.5973 653.813 54.924C653.813 55.5307 653.845 56.086 653.911 56.59C653.976 57.094 654.121 57.5 654.345 57.808C654.578 58.1067 654.937 58.256 655.423 58.256C655.749 58.256 656.02 58.1533 656.235 57.948C656.449 57.7427 656.622 57.5047 656.753 57.234C656.893 56.9633 657.009 56.7253 657.103 56.52C657.205 56.66 657.359 56.8513 657.565 57.094C657.77 57.3273 657.985 57.57 658.209 57.822C658.442 58.074 658.647 58.3027 658.825 58.508C659.011 58.704 659.137 58.8393 659.203 58.914ZM673.798 58.284C673.565 58.5827 673.252 58.8953 672.86 59.222C672.477 59.5393 672.015 59.8333 671.474 60.104C670.933 60.3653 670.307 60.58 669.598 60.748C668.889 60.916 668.095 61 667.218 61C665.809 61 664.563 60.7247 663.48 60.174C662.407 59.6233 661.567 58.816 660.96 57.752C660.363 56.6787 660.064 55.3533 660.064 53.776C660.064 52.2173 660.381 50.864 661.016 49.716C661.651 48.5587 662.533 47.6627 663.662 47.028C664.791 46.3933 666.098 46.076 667.582 46.076C669.458 46.076 670.933 46.6173 672.006 47.7C673.079 48.7733 673.653 50.248 673.728 52.124C673.737 52.4507 673.733 52.754 673.714 53.034C673.705 53.3047 673.677 53.5987 673.63 53.916C673.499 53.9067 673.219 53.8973 672.79 53.888C672.361 53.8693 671.871 53.8553 671.32 53.846C670.769 53.8273 670.237 53.8133 669.724 53.804C669.22 53.7947 668.823 53.79 668.534 53.79C667.685 53.79 666.84 53.832 666 53.916C665.16 53.9907 664.441 54.0747 663.844 54.168C663.844 54.364 663.858 54.5553 663.886 54.742C663.914 54.9287 663.951 55.106 663.998 55.274C664.138 55.722 664.376 56.1093 664.712 56.436C665.057 56.7533 665.468 56.996 665.944 57.164C666.429 57.332 666.938 57.416 667.47 57.416C667.983 57.416 668.445 57.346 668.856 57.206C669.267 57.066 669.631 56.8887 669.948 56.674C670.275 56.4593 670.559 56.2353 670.802 56.002C671.045 55.7687 671.259 55.5633 671.446 55.386C671.502 55.4327 671.633 55.5587 671.838 55.764C672.043 55.9693 672.277 56.2167 672.538 56.506C672.799 56.7953 673.042 57.0987 673.266 57.416C673.499 57.7333 673.677 58.0227 673.798 58.284ZM663.956 51.802C664.46 51.718 665.067 51.6433 665.776 51.578C666.495 51.5127 667.321 51.48 668.254 51.48C668.749 51.48 669.178 51.4893 669.542 51.508C669.915 51.5173 670.177 51.5267 670.326 51.536C670.326 51.3027 670.293 51.0507 670.228 50.78C670.144 50.416 669.981 50.066 669.738 49.73C669.505 49.3847 669.197 49.1047 668.814 48.89C668.431 48.6753 667.969 48.568 667.428 48.568C666.756 48.568 666.163 48.7127 665.65 49.002C665.137 49.282 664.731 49.6693 664.432 50.164C664.143 50.6493 663.984 51.1953 663.956 51.802Z" fill="#F1692F"/>
<path d="M699.59 45.642C698.918 45.586 698.162 45.5347 697.322 45.488C696.482 45.432 695.628 45.39 694.76 45.362C693.901 45.3247 693.099 45.2967 692.352 45.278C691.615 45.25 691.008 45.236 690.532 45.236C690.532 44.8067 690.546 44.3913 690.574 43.99C690.602 43.5887 690.625 43.318 690.644 43.178C691.027 43.178 691.526 43.192 692.142 43.22C692.767 43.248 693.439 43.2853 694.158 43.332C694.886 43.3787 695.609 43.4347 696.328 43.5C697.047 43.556 697.7 43.6167 698.288 43.682C698.876 43.7473 699.333 43.808 699.66 43.864C699.679 44.144 699.679 44.4333 699.66 44.732C699.641 45.0307 699.618 45.334 699.59 45.642ZM694.354 60.958C694.345 60.818 694.335 60.6127 694.326 60.342C694.317 60.0713 694.307 59.8007 694.298 59.53C694.298 59.25 694.298 59.0353 694.298 58.886C694.205 59.026 694.041 59.2127 693.808 59.446C693.575 59.6793 693.262 59.9127 692.87 60.146C692.487 60.3793 692.016 60.58 691.456 60.748C690.896 60.9067 690.238 60.986 689.482 60.986C688.287 60.986 687.256 60.706 686.388 60.146C685.529 59.5767 684.871 58.802 684.414 57.822C683.957 56.842 683.728 55.7267 683.728 54.476C683.728 53.2627 683.957 52.1333 684.414 51.088C684.881 50.0427 685.576 49.198 686.5 48.554C687.433 47.9007 688.6 47.574 690 47.574C690.747 47.574 691.419 47.658 692.016 47.826C692.623 47.994 693.131 48.1993 693.542 48.442C693.962 48.6847 694.256 48.9227 694.424 49.156C694.452 48.6707 694.485 48.106 694.522 47.462C694.569 46.818 694.62 46.146 694.676 45.446C694.732 44.746 694.783 44.0787 694.83 43.444C694.886 42.8093 694.937 42.2633 694.984 41.806C695.031 41.3393 695.063 41.022 695.082 40.854C695.567 40.854 696.109 40.882 696.706 40.938C697.313 40.9847 697.845 41.0687 698.302 41.19C698.134 43.3367 698.003 45.4833 697.91 47.63C697.826 49.7673 697.765 51.9467 697.728 54.168C697.7 56.38 697.686 58.6807 697.686 61.07C697.49 61.07 697.173 61.0653 696.734 61.056C696.305 61.0467 695.861 61.0327 695.404 61.014C694.956 60.9953 694.606 60.9767 694.354 60.958ZM690.49 57.416C690.975 57.416 691.414 57.3507 691.806 57.22C692.207 57.0893 692.562 56.926 692.87 56.73C693.187 56.5247 693.458 56.3147 693.682 56.1C693.906 55.876 694.083 55.6707 694.214 55.484C694.214 55.288 694.214 55.0313 694.214 54.714C694.214 54.3967 694.214 54.0653 694.214 53.72C694.223 53.3747 694.228 53.0527 694.228 52.754C694.237 52.4553 694.247 52.2267 694.256 52.068C694.051 51.872 693.752 51.676 693.36 51.48C692.977 51.2747 692.543 51.1067 692.058 50.976C691.582 50.836 691.087 50.766 690.574 50.766C689.519 50.766 688.703 51.0787 688.124 51.704C687.555 52.32 687.27 53.1413 687.27 54.168C687.27 55.232 687.545 56.0393 688.096 56.59C688.656 57.1407 689.454 57.416 690.49 57.416ZM714.364 58.284C714.131 58.5827 713.818 58.8953 713.426 59.222C713.044 59.5393 712.582 59.8333 712.04 60.104C711.499 60.3653 710.874 60.58 710.164 60.748C709.455 60.916 708.662 61 707.784 61C706.375 61 705.129 60.7247 704.046 60.174C702.973 59.6233 702.133 58.816 701.526 57.752C700.929 56.6787 700.63 55.3533 700.63 53.776C700.63 52.2173 700.948 50.864 701.582 49.716C702.217 48.5587 703.099 47.6627 704.228 47.028C705.358 46.3933 706.664 46.076 708.148 46.076C710.024 46.076 711.499 46.6173 712.572 47.7C713.646 48.7733 714.22 50.248 714.294 52.124C714.304 52.4507 714.299 52.754 714.28 53.034C714.271 53.3047 714.243 53.5987 714.196 53.916C714.066 53.9067 713.786 53.8973 713.356 53.888C712.927 53.8693 712.437 53.8553 711.886 53.846C711.336 53.8273 710.804 53.8133 710.29 53.804C709.786 53.7947 709.39 53.79 709.1 53.79C708.251 53.79 707.406 53.832 706.566 53.916C705.726 53.9907 705.008 54.0747 704.41 54.168C704.41 54.364 704.424 54.5553 704.452 54.742C704.48 54.9287 704.518 55.106 704.564 55.274C704.704 55.722 704.942 56.1093 705.278 56.436C705.624 56.7533 706.034 56.996 706.51 57.164C706.996 57.332 707.504 57.416 708.036 57.416C708.55 57.416 709.012 57.346 709.422 57.206C709.833 57.066 710.197 56.8887 710.514 56.674C710.841 56.4593 711.126 56.2353 711.368 56.002C711.611 55.7687 711.826 55.5633 712.012 55.386C712.068 55.4327 712.199 55.5587 712.404 55.764C712.61 55.9693 712.843 56.2167 713.104 56.506C713.366 56.7953 713.608 57.0987 713.832 57.416C714.066 57.7333 714.243 58.0227 714.364 58.284ZM704.522 51.802C705.026 51.718 705.633 51.6433 706.342 51.578C707.061 51.5127 707.887 51.48 708.82 51.48C709.315 51.48 709.744 51.4893 710.108 51.508C710.482 51.5173 710.743 51.5267 710.892 51.536C710.892 51.3027 710.86 51.0507 710.794 50.78C710.71 50.416 710.547 50.066 710.304 49.73C710.071 49.3847 709.763 49.1047 709.38 48.89C708.998 48.6753 708.536 48.568 707.994 48.568C707.322 48.568 706.73 48.7127 706.216 49.002C705.703 49.282 705.297 49.6693 704.998 50.164C704.709 50.6493 704.55 51.1953 704.522 51.802ZM711.326 45.502C711.093 45.222 710.822 44.9187 710.514 44.592C710.206 44.256 709.903 43.934 709.604 43.626C709.306 43.3087 709.044 43.038 708.82 42.814C708.606 42.59 708.47 42.45 708.414 42.394H708.778C708.685 42.4593 708.503 42.604 708.232 42.828C707.971 43.0427 707.668 43.2993 707.322 43.598C706.977 43.8873 706.627 44.186 706.272 44.494C705.918 44.7927 705.605 45.0633 705.334 45.306C705.12 45.2313 704.849 45.1053 704.522 44.928C704.196 44.7507 703.874 44.5547 703.556 44.34C703.239 44.116 702.973 43.9107 702.758 43.724C703.178 43.3973 703.617 43.0613 704.074 42.716C704.541 42.3613 704.994 42.0253 705.432 41.708C705.871 41.3813 706.263 41.0967 706.608 40.854C706.963 40.602 707.234 40.4247 707.42 40.322C707.57 40.3127 707.803 40.308 708.12 40.308C708.438 40.2987 708.764 40.294 709.1 40.294C709.436 40.2847 709.693 40.2847 709.87 40.294C710.244 40.63 710.668 41.0313 711.144 41.498C711.62 41.9553 712.096 42.4173 712.572 42.884C713.058 43.3507 713.478 43.7753 713.832 44.158C713.412 44.4567 712.978 44.7273 712.53 44.97C712.082 45.2033 711.681 45.3807 711.326 45.502ZM711.732 41.106C711.732 40.8633 711.737 40.56 711.746 40.196C711.756 39.832 711.765 39.58 711.774 39.44C712.493 39.44 713.044 39.398 713.426 39.314C713.818 39.23 714.014 39.0387 714.014 38.74C714.014 38.4973 713.874 38.3527 713.594 38.306C713.314 38.2593 713.006 38.236 712.67 38.236C712.325 38.236 711.924 38.2687 711.466 38.334C711.018 38.39 710.687 38.4413 710.472 38.488L710.052 36.85C710.155 36.8127 710.393 36.7707 710.766 36.724C711.14 36.668 711.55 36.6213 711.998 36.584C712.446 36.5467 712.829 36.528 713.146 36.528C714.201 36.528 715.036 36.6587 715.652 36.92C716.278 37.1813 716.59 37.6807 716.59 38.418C716.59 38.95 716.441 39.3467 716.142 39.608C715.853 39.8693 715.498 40.0467 715.078 40.14C714.668 40.2333 714.29 40.294 713.944 40.322C713.944 40.406 713.94 40.5367 713.93 40.714C713.93 40.882 713.926 41.0453 713.916 41.204C713.916 41.3627 713.912 41.4747 713.902 41.54L711.732 41.106ZM729.24 61.182C728.988 61.1913 728.685 61.1913 728.33 61.182C727.976 61.182 727.612 61.182 727.238 61.182C726.93 61.1633 726.576 61.1447 726.174 61.126C725.782 61.1167 725.502 61.1027 725.334 61.084C725.428 60.3 725.502 59.4273 725.558 58.466C725.624 57.4953 725.675 56.4173 725.712 55.232C725.759 54.0467 725.792 52.7353 725.81 51.298C725.829 49.8513 725.838 48.26 725.838 46.524C726.156 46.4773 726.529 46.4447 726.958 46.426C727.388 46.398 727.817 46.384 728.246 46.384C728.554 46.384 728.848 46.3933 729.128 46.412C729.418 46.4213 729.67 46.4447 729.884 46.482C729.894 46.566 729.898 46.7387 729.898 47C729.898 47.2613 729.898 47.5507 729.898 47.868C729.898 48.176 729.894 48.4513 729.884 48.694C730.164 48.3393 730.589 47.966 731.158 47.574C731.737 47.1727 732.4 46.8367 733.146 46.566C733.902 46.2953 734.668 46.16 735.442 46.16C736.87 46.16 737.958 46.4447 738.704 47.014C739.46 47.5833 739.974 48.4327 740.244 49.562C740.524 50.6913 740.664 52.1007 740.664 53.79C740.664 54.406 740.646 55.1153 740.608 55.918C740.58 56.7113 740.529 57.5513 740.454 58.438C740.389 59.3153 740.305 60.1833 740.202 61.042C740.034 61.0607 739.768 61.0747 739.404 61.084C739.05 61.1027 738.672 61.112 738.27 61.112C737.86 61.112 737.463 61.1027 737.08 61.084C736.707 61.0747 736.427 61.0607 736.24 61.042C736.343 60.426 736.45 59.7167 736.562 58.914C736.684 58.102 736.782 57.2573 736.856 56.38C736.94 55.5027 736.982 54.6627 736.982 53.86C736.982 53.02 736.912 52.2873 736.772 51.662C736.642 51.0273 736.39 50.5373 736.016 50.192C735.643 49.8373 735.092 49.66 734.364 49.66C733.711 49.66 733.095 49.772 732.516 49.996C731.938 50.22 731.42 50.4907 730.962 50.808C730.505 51.1253 730.122 51.424 729.814 51.704C729.796 53.216 729.749 54.588 729.674 55.82C729.609 57.052 729.534 58.1207 729.45 59.026C729.376 59.9313 729.306 60.65 729.24 61.182ZM747.665 61.196C747.469 61.224 747.199 61.2473 746.853 61.266C746.517 61.2847 746.163 61.294 745.789 61.294C745.379 61.294 744.987 61.2753 744.613 61.238C744.24 61.21 743.965 61.168 743.787 61.112C743.871 60.5147 743.941 59.7493 743.997 58.816C744.063 57.8827 744.114 56.8373 744.151 55.68C744.189 54.5227 744.207 53.314 744.207 52.054C744.207 50.8033 744.189 49.5387 744.151 48.26C744.114 46.9813 744.063 45.7493 743.997 44.564C743.941 43.3693 743.881 42.2773 743.815 41.288C743.89 41.26 744.077 41.2227 744.375 41.176C744.683 41.12 745.033 41.064 745.425 41.008C745.827 40.952 746.205 40.9053 746.559 40.868C746.914 40.8213 747.185 40.798 747.371 40.798C747.511 41.498 747.633 42.3473 747.735 43.346C747.847 44.3447 747.936 45.4367 748.001 46.622C748.076 47.798 748.127 49.016 748.155 50.276C748.473 49.912 748.879 49.576 749.373 49.268C749.877 48.9507 750.428 48.6987 751.025 48.512C751.623 48.3253 752.22 48.232 752.817 48.232C753.919 48.232 754.768 48.456 755.365 48.904C755.972 49.352 756.397 49.9913 756.639 50.822C756.882 51.6527 757.003 52.6513 757.003 53.818C757.003 54.5553 756.975 55.3533 756.919 56.212C756.863 57.0613 756.789 57.906 756.695 58.746C756.602 59.5767 756.504 60.3327 756.401 61.014C756.112 61.0513 755.809 61.0793 755.491 61.098C755.183 61.126 754.875 61.14 754.567 61.14C754.231 61.14 753.895 61.126 753.559 61.098C753.233 61.07 752.939 61.028 752.677 60.972C752.743 60.5427 752.813 60.048 752.887 59.488C752.962 58.9187 753.032 58.3353 753.097 57.738C753.163 57.1313 753.214 56.548 753.251 55.988C753.298 55.428 753.321 54.938 753.321 54.518C753.321 53.9113 753.265 53.3887 753.153 52.95C753.041 52.5113 752.85 52.1753 752.579 51.942C752.318 51.6993 751.949 51.578 751.473 51.578C751.072 51.578 750.689 51.6573 750.325 51.816C749.971 51.9747 749.644 52.1707 749.345 52.404C749.056 52.628 748.804 52.852 748.589 53.076C748.384 53.3 748.235 53.482 748.141 53.622C748.141 54.6113 748.118 55.6007 748.071 56.59C748.025 57.5793 747.964 58.48 747.889 59.292C747.824 60.104 747.749 60.7387 747.665 61.196ZM765.488 61.252C764.331 61.252 763.276 61.098 762.324 60.79C761.372 60.482 760.611 59.978 760.042 59.278C759.482 58.5687 759.202 57.6353 759.202 56.478C759.202 55.3207 759.524 54.3873 760.168 53.678C760.821 52.9593 761.685 52.4367 762.758 52.11C763.831 51.774 765.007 51.606 766.286 51.606C766.809 51.606 767.317 51.6433 767.812 51.718C768.307 51.7927 768.741 51.886 769.114 51.998C769.487 52.1007 769.749 52.1987 769.898 52.292C769.879 52.0213 769.828 51.7413 769.744 51.452C769.66 51.1627 769.534 50.9153 769.366 50.71C769.067 50.2527 768.643 49.87 768.092 49.562C767.551 49.254 766.846 49.1 765.978 49.1C765.091 49.1 764.321 49.296 763.668 49.688C763.015 50.08 762.525 50.5327 762.198 51.046L759.16 49.086C759.58 48.4887 760.14 47.9613 760.84 47.504C761.54 47.0467 762.338 46.692 763.234 46.44C764.13 46.1787 765.082 46.048 766.09 46.048C767.714 46.048 769.039 46.328 770.066 46.888C771.093 47.448 771.849 48.2133 772.334 49.184C772.567 49.66 772.759 50.1827 772.908 50.752C773.057 51.3213 773.155 51.9933 773.202 52.768C773.23 53.4867 773.253 54.1353 773.272 54.714C773.291 55.2927 773.314 55.82 773.342 56.296C773.361 56.9773 773.44 57.4207 773.58 57.626C773.729 57.822 773.93 57.92 774.182 57.92C774.453 57.92 774.686 57.8313 774.882 57.654C775.078 57.4767 775.199 57.234 775.246 56.926L776.66 59.278C776.576 59.8287 776.291 60.272 775.806 60.608C775.321 60.9347 774.728 61.098 774.028 61.098C773.496 61.098 773.006 61.0047 772.558 60.818C772.11 60.622 771.741 60.37 771.452 60.062C771.172 59.7447 771.009 59.3993 770.962 59.026C770.794 59.3713 770.463 59.7167 769.968 60.062C769.473 60.4073 768.848 60.692 768.092 60.916C767.336 61.14 766.468 61.252 765.488 61.252ZM766.272 58.326C766.767 58.326 767.266 58.2513 767.77 58.102C768.274 57.9527 768.731 57.7567 769.142 57.514C769.562 57.2713 769.893 57.0193 770.136 56.758C770.117 56.366 770.103 55.9927 770.094 55.638C770.094 55.2833 770.099 54.9707 770.108 54.7C769.884 54.616 769.45 54.518 768.806 54.406C768.171 54.2847 767.485 54.224 766.748 54.224C766.095 54.224 765.488 54.3033 764.928 54.462C764.377 54.6113 763.929 54.84 763.584 55.148C763.248 55.4467 763.08 55.8247 763.08 56.282C763.08 56.8047 763.211 57.2153 763.472 57.514C763.743 57.8127 764.116 58.0227 764.592 58.144C765.077 58.2653 765.637 58.326 766.272 58.326ZM766.888 62.988C767.485 62.988 767.975 63.1513 768.358 63.478C768.741 63.814 768.932 64.234 768.932 64.738C768.932 65.27 768.764 65.7367 768.428 66.138C768.092 66.5393 767.658 66.74 767.126 66.74C766.529 66.74 766.011 66.586 765.572 66.278C765.143 65.9793 764.928 65.5593 764.928 65.018C764.928 64.346 765.115 63.8373 765.488 63.492C765.861 63.156 766.328 62.988 766.888 62.988ZM768.33 40.182C768.703 40.518 769.128 40.9193 769.604 41.386C770.08 41.8433 770.556 42.3053 771.032 42.772C771.517 43.2387 771.937 43.6633 772.292 44.046C771.872 44.3447 771.438 44.6153 770.99 44.858C770.542 45.0913 770.141 45.2687 769.786 45.39C769.553 45.11 769.282 44.8067 768.974 44.48C768.666 44.144 768.363 43.822 768.064 43.514C767.765 43.1967 767.504 42.926 767.28 42.702C767.065 42.478 766.93 42.338 766.874 42.282H767.238C767.145 42.3473 766.963 42.492 766.692 42.716C766.431 42.9307 766.127 43.1873 765.782 43.486C765.437 43.7753 765.087 44.074 764.732 44.382C764.377 44.6807 764.065 44.9513 763.794 45.194C763.579 45.1193 763.309 44.9933 762.982 44.816C762.655 44.6387 762.333 44.4427 762.016 44.228C761.699 44.004 761.433 43.7987 761.218 43.612C761.638 43.2853 762.077 42.9493 762.534 42.604C763.001 42.2493 763.453 41.9133 763.892 41.596C764.331 41.2693 764.723 40.9847 765.068 40.742C765.423 40.49 765.693 40.3127 765.88 40.21C766.029 40.2007 766.263 40.196 766.58 40.196C766.897 40.1867 767.224 40.182 767.56 40.182C767.896 40.1727 768.153 40.1727 768.33 40.182ZM781.713 61.182C781.461 61.1913 781.158 61.1913 780.803 61.182C780.448 61.182 780.084 61.182 779.711 61.182C779.403 61.1633 779.048 61.1447 778.647 61.126C778.255 61.1167 777.975 61.1027 777.807 61.084C777.9 60.3 777.975 59.4273 778.031 58.466C778.096 57.4953 778.148 56.4173 778.185 55.232C778.232 54.0467 778.264 52.7353 778.283 51.298C778.302 49.8513 778.311 48.26 778.311 46.524C778.628 46.4773 779.002 46.4447 779.431 46.426C779.86 46.398 780.29 46.384 780.719 46.384C781.027 46.384 781.321 46.3933 781.601 46.412C781.89 46.4213 782.142 46.4447 782.357 46.482C782.366 46.566 782.371 46.7387 782.371 47C782.371 47.2613 782.371 47.5507 782.371 47.868C782.371 48.176 782.366 48.4513 782.357 48.694C782.637 48.3393 783.062 47.966 783.631 47.574C784.21 47.1727 784.872 46.8367 785.619 46.566C786.375 46.2953 787.14 46.16 787.915 46.16C789.343 46.16 790.43 46.4447 791.177 47.014C791.933 47.5833 792.446 48.4327 792.717 49.562C792.997 50.6913 793.137 52.1007 793.137 53.79C793.137 54.406 793.118 55.1153 793.081 55.918C793.053 56.7113 793.002 57.5513 792.927 58.438C792.862 59.3153 792.778 60.1833 792.675 61.042C792.507 61.0607 792.241 61.0747 791.877 61.084C791.522 61.1027 791.144 61.112 790.743 61.112C790.332 61.112 789.936 61.1027 789.553 61.084C789.18 61.0747 788.9 61.0607 788.713 61.042C788.816 60.426 788.923 59.7167 789.035 58.914C789.156 58.102 789.254 57.2573 789.329 56.38C789.413 55.5027 789.455 54.6627 789.455 53.86C789.455 53.02 789.385 52.2873 789.245 51.662C789.114 51.0273 788.862 50.5373 788.489 50.192C788.116 49.8373 787.565 49.66 786.837 49.66C786.184 49.66 785.568 49.772 784.989 49.996C784.41 50.22 783.892 50.4907 783.435 50.808C782.978 51.1253 782.595 51.424 782.287 51.704C782.268 53.216 782.222 54.588 782.147 55.82C782.082 57.052 782.007 58.1207 781.923 59.026C781.848 59.9313 781.778 60.65 781.713 61.182ZM814.169 47.112C814.356 47.084 814.571 47.056 814.813 47.028C815.056 47 815.285 46.986 815.499 46.986C815.714 46.986 815.989 46.9953 816.325 47.014C816.671 47.0233 817.007 47.0373 817.333 47.056C817.66 47.0653 817.903 47.084 818.061 47.112C818.192 47.924 818.295 48.7453 818.369 49.576C818.444 50.3973 818.481 51.2093 818.481 52.012C818.481 53.3467 818.365 54.602 818.131 55.778C817.907 56.954 817.529 57.9947 816.997 58.9C816.475 59.796 815.775 60.496 814.897 61C814.02 61.5133 812.937 61.77 811.649 61.77C810.259 61.77 809.115 61.4993 808.219 60.958C807.323 60.4073 806.623 59.6467 806.119 58.676C805.625 57.696 805.279 56.562 805.083 55.274C804.887 53.9767 804.789 52.5813 804.789 51.088C804.789 50.3507 804.808 49.604 804.845 48.848C804.892 48.092 804.943 47.3407 804.999 46.594C805.214 46.5753 805.494 46.566 805.839 46.566C806.194 46.5567 806.516 46.552 806.805 46.552C807.216 46.5613 807.622 46.5893 808.023 46.636C808.434 46.6827 808.761 46.7433 809.003 46.818C808.929 47.518 808.863 48.2507 808.807 49.016C808.761 49.772 808.737 50.5233 808.737 51.27C808.737 52.642 808.84 53.8507 809.045 54.896C809.251 55.932 809.573 56.7393 810.011 57.318C810.45 57.8967 811.024 58.186 811.733 58.186C812.405 58.186 812.951 57.9247 813.371 57.402C813.801 56.8793 814.113 56.156 814.309 55.232C814.515 54.2987 814.617 53.2253 814.617 52.012C814.617 51.1907 814.575 50.3507 814.491 49.492C814.407 48.624 814.3 47.8307 814.169 47.112ZM816.297 49.478L815.499 46.986C816.246 46.986 816.839 46.846 817.277 46.566C817.725 46.286 818.052 45.88 818.257 45.348C818.463 44.816 818.565 44.172 818.565 43.416C818.976 43.416 819.387 43.444 819.797 43.5C820.217 43.556 820.586 43.6307 820.903 43.724C821.23 43.8173 821.44 43.9153 821.533 44.018C821.533 45.1007 821.375 46.0013 821.057 46.72C820.749 47.4293 820.334 47.9847 819.811 48.386C819.298 48.778 818.733 49.058 818.117 49.226C817.501 49.394 816.895 49.478 816.297 49.478ZM832.025 47.21C832.23 47.1353 832.519 47.0793 832.893 47.042C833.275 47.0047 833.649 46.986 834.013 46.986C834.311 46.986 834.643 47 835.007 47.028C835.38 47.0467 835.683 47.0747 835.917 47.112C836.047 47.924 836.15 48.7453 836.225 49.576C836.299 50.3973 836.337 51.2093 836.337 52.012C836.337 53.3467 836.22 54.602 835.987 55.778C835.763 56.954 835.385 57.9947 834.853 58.9C834.33 59.796 833.63 60.496 832.753 61C831.875 61.5133 830.793 61.77 829.505 61.77C828.114 61.77 826.971 61.4993 826.075 60.958C825.179 60.4073 824.479 59.6467 823.975 58.676C823.48 57.696 823.135 56.562 822.939 55.274C822.743 53.9767 822.645 52.5813 822.645 51.088C822.645 50.3507 822.663 49.604 822.701 48.848C822.747 48.092 822.799 47.3407 822.855 46.594C823.069 46.5753 823.349 46.566 823.695 46.566C824.049 46.5567 824.371 46.552 824.661 46.552C825.071 46.5613 825.477 46.5893 825.879 46.636C826.289 46.6827 826.616 46.7433 826.859 46.818C826.784 47.518 826.719 48.2507 826.663 49.016C826.616 49.772 826.593 50.5233 826.593 51.27C826.593 52.642 826.695 53.8507 826.901 54.896C827.106 55.932 827.428 56.7393 827.867 57.318C828.305 57.8967 828.879 58.186 829.589 58.186C830.261 58.186 830.807 57.9247 831.227 57.402C831.656 56.8793 831.969 56.156 832.165 55.232C832.37 54.2987 832.473 53.2253 832.473 52.012C832.473 51.1907 832.431 50.3647 832.347 49.534C832.263 48.694 832.155 47.9193 832.025 47.21ZM863.16 45.642C862.488 45.586 861.732 45.5347 860.892 45.488C860.052 45.432 859.198 45.39 858.33 45.362C857.472 45.3247 856.669 45.2967 855.922 45.278C855.185 45.25 854.578 45.236 854.102 45.236C854.102 44.8067 854.116 44.3913 854.144 43.99C854.172 43.5887 854.196 43.318 854.214 43.178C854.597 43.178 855.096 43.192 855.712 43.22C856.338 43.248 857.01 43.2853 857.728 43.332C858.456 43.3787 859.18 43.4347 859.898 43.5C860.617 43.556 861.27 43.6167 861.858 43.682C862.446 43.7473 862.904 43.808 863.23 43.864C863.249 44.144 863.249 44.4333 863.23 44.732C863.212 45.0307 863.188 45.334 863.16 45.642ZM857.924 60.958C857.915 60.818 857.906 60.6127 857.896 60.342C857.887 60.0713 857.878 59.8007 857.868 59.53C857.868 59.25 857.868 59.0353 857.868 58.886C857.775 59.026 857.612 59.2127 857.378 59.446C857.145 59.6793 856.832 59.9127 856.44 60.146C856.058 60.3793 855.586 60.58 855.026 60.748C854.466 60.9067 853.808 60.986 853.052 60.986C851.858 60.986 850.826 60.706 849.958 60.146C849.1 59.5767 848.442 58.802 847.984 57.822C847.527 56.842 847.298 55.7267 847.298 54.476C847.298 53.2627 847.527 52.1333 847.984 51.088C848.451 50.0427 849.146 49.198 850.07 48.554C851.004 47.9007 852.17 47.574 853.57 47.574C854.317 47.574 854.989 47.658 855.586 47.826C856.193 47.994 856.702 48.1993 857.112 48.442C857.532 48.6847 857.826 48.9227 857.994 49.156C858.022 48.6707 858.055 48.106 858.092 47.462C858.139 46.818 858.19 46.146 858.246 45.446C858.302 44.746 858.354 44.0787 858.4 43.444C858.456 42.8093 858.508 42.2633 858.554 41.806C858.601 41.3393 858.634 41.022 858.652 40.854C859.138 40.854 859.679 40.882 860.276 40.938C860.883 40.9847 861.415 41.0687 861.872 41.19C861.704 43.3367 861.574 45.4833 861.48 47.63C861.396 49.7673 861.336 51.9467 861.298 54.168C861.27 56.38 861.256 58.6807 861.256 61.07C861.06 61.07 860.743 61.0653 860.304 61.056C859.875 61.0467 859.432 61.0327 858.974 61.014C858.526 60.9953 858.176 60.9767 857.924 60.958ZM854.06 57.416C854.546 57.416 854.984 57.3507 855.376 57.22C855.778 57.0893 856.132 56.926 856.44 56.73C856.758 56.5247 857.028 56.3147 857.252 56.1C857.476 55.876 857.654 55.6707 857.784 55.484C857.784 55.288 857.784 55.0313 857.784 54.714C857.784 54.3967 857.784 54.0653 857.784 53.72C857.794 53.3747 857.798 53.0527 857.798 52.754C857.808 52.4553 857.817 52.2267 857.826 52.068C857.621 51.872 857.322 51.676 856.93 51.48C856.548 51.2747 856.114 51.1067 855.628 50.976C855.152 50.836 854.658 50.766 854.144 50.766C853.09 50.766 852.273 51.0787 851.694 51.704C851.125 52.32 850.84 53.1413 850.84 54.168C850.84 55.232 851.116 56.0393 851.666 56.59C852.226 57.1407 853.024 57.416 854.06 57.416ZM870.543 61.252C869.385 61.252 868.331 61.098 867.379 60.79C866.427 60.482 865.666 59.978 865.097 59.278C864.537 58.5687 864.257 57.6353 864.257 56.478C864.257 55.3207 864.579 54.3873 865.223 53.678C865.876 52.9593 866.739 52.4367 867.813 52.11C868.886 51.774 870.062 51.606 871.341 51.606C871.863 51.606 872.372 51.6433 872.867 51.718C873.361 51.7927 873.795 51.886 874.169 51.998C874.542 52.1007 874.803 52.1987 874.953 52.292C874.934 52.0213 874.883 51.7413 874.799 51.452C874.715 51.1627 874.589 50.9153 874.421 50.71C874.122 50.2527 873.697 49.87 873.147 49.562C872.605 49.254 871.901 49.1 871.033 49.1C870.146 49.1 869.376 49.296 868.723 49.688C868.069 50.08 867.579 50.5327 867.253 51.046L864.215 49.086C864.635 48.4887 865.195 47.9613 865.895 47.504C866.595 47.0467 867.393 46.692 868.289 46.44C869.185 46.1787 870.137 46.048 871.145 46.048C872.769 46.048 874.094 46.328 875.121 46.888C876.147 47.448 876.903 48.2133 877.389 49.184C877.622 49.66 877.813 50.1827 877.963 50.752C878.112 51.3213 878.21 51.9933 878.257 52.768C878.285 53.4867 878.308 54.1353 878.327 54.714C878.345 55.2927 878.369 55.82 878.397 56.296C878.415 56.9773 878.495 57.4207 878.635 57.626C878.784 57.822 878.985 57.92 879.237 57.92C879.507 57.92 879.741 57.8313 879.937 57.654C880.133 57.4767 880.254 57.234 880.301 56.926L881.715 59.278C881.631 59.8287 881.346 60.272 880.861 60.608C880.375 60.9347 879.783 61.098 879.083 61.098C878.551 61.098 878.061 61.0047 877.613 60.818C877.165 60.622 876.796 60.37 876.507 60.062C876.227 59.7447 876.063 59.3993 876.017 59.026C875.849 59.3713 875.517 59.7167 875.023 60.062C874.528 60.4073 873.903 60.692 873.147 60.916C872.391 61.14 871.523 61.252 870.543 61.252ZM871.327 58.326C871.821 58.326 872.321 58.2513 872.825 58.102C873.329 57.9527 873.786 57.7567 874.197 57.514C874.617 57.2713 874.948 57.0193 875.191 56.758C875.172 56.366 875.158 55.9927 875.149 55.638C875.149 55.2833 875.153 54.9707 875.163 54.7C874.939 54.616 874.505 54.518 873.861 54.406C873.226 54.2847 872.54 54.224 871.803 54.224C871.149 54.224 870.543 54.3033 869.983 54.462C869.432 54.6113 868.984 54.84 868.639 55.148C868.303 55.4467 868.135 55.8247 868.135 56.282C868.135 56.8047 868.265 57.2153 868.527 57.514C868.797 57.8127 869.171 58.0227 869.647 58.144C870.132 58.2653 870.692 58.326 871.327 58.326ZM865.951 42.87C866.1 42.45 866.357 42.0393 866.721 41.638C867.085 41.2367 867.523 40.9053 868.037 40.644C868.559 40.3827 869.119 40.252 869.717 40.252C870.267 40.252 870.729 40.378 871.103 40.63C871.485 40.882 871.835 41.1573 872.153 41.456C872.423 41.7173 872.699 41.9507 872.979 42.156C873.268 42.352 873.595 42.45 873.959 42.45C874.379 42.45 874.724 42.2867 874.995 41.96C875.265 41.6333 875.466 41.2693 875.597 40.868L877.585 42.044C877.538 42.268 877.426 42.5387 877.249 42.856C877.081 43.1733 876.852 43.4907 876.563 43.808C876.273 44.1253 875.923 44.3913 875.513 44.606C875.111 44.8207 874.649 44.928 874.127 44.928C873.604 44.928 873.137 44.788 872.727 44.508C872.316 44.2187 871.933 43.92 871.579 43.612C871.299 43.3507 871.019 43.1267 870.739 42.94C870.468 42.7533 870.193 42.66 869.913 42.66C869.549 42.66 869.227 42.758 868.947 42.954C868.676 43.15 868.447 43.388 868.261 43.668C868.083 43.9387 867.948 44.186 867.855 44.41L865.951 42.87ZM887.188 60.986C887.038 60.9953 886.768 61.014 886.376 61.042C885.984 61.07 885.578 61.084 885.158 61.084C884.822 61.084 884.49 61.0747 884.164 61.056C883.837 61.0373 883.52 61.0093 883.212 60.972C883.258 60.7293 883.31 60.23 883.366 59.474C883.422 58.718 883.478 57.8267 883.534 56.8C883.599 55.7733 883.66 54.714 883.716 53.622C883.772 52.5207 883.814 51.494 883.842 50.542C883.879 49.5807 883.898 48.8153 883.898 48.246C884.056 48.2367 884.294 48.2227 884.612 48.204C884.929 48.1853 885.274 48.1713 885.648 48.162C886.021 48.1433 886.376 48.1293 886.712 48.12C887.048 48.1107 887.309 48.106 887.496 48.106C887.542 48.386 887.575 48.8247 887.594 49.422C887.622 50.0193 887.636 50.6913 887.636 51.438C887.636 52.2967 887.622 53.216 887.594 54.196C887.575 55.1667 887.547 56.114 887.51 57.038C887.472 57.962 887.421 58.7787 887.356 59.488C887.3 60.188 887.244 60.6873 887.188 60.986ZM885.858 46.174C885.083 46.174 884.444 45.9453 883.94 45.488C883.436 45.0307 883.184 44.438 883.184 43.71C883.184 43.1967 883.305 42.7627 883.548 42.408C883.79 42.044 884.108 41.7687 884.5 41.582C884.892 41.386 885.307 41.288 885.746 41.288C886.455 41.288 887.034 41.526 887.482 42.002C887.939 42.4687 888.168 43.066 888.168 43.794C888.168 44.4567 887.948 45.0213 887.51 45.488C887.08 45.9453 886.53 46.174 885.858 46.174ZM907.51 60.258C907.267 60.5473 906.815 60.832 906.152 61.112C905.489 61.4013 904.738 61.546 903.898 61.546C902.778 61.546 901.933 61.2753 901.364 60.734C900.804 60.1833 900.426 59.418 900.23 58.438C900.043 57.458 899.95 56.3193 899.95 55.022C899.95 54.0793 899.959 53.104 899.978 52.096C899.997 51.0787 900.02 50.0613 900.048 49.044C900.085 48.0267 900.123 47.0373 900.16 46.076C900.197 45.1053 900.235 44.1907 900.272 43.332C900.319 42.464 900.361 41.6847 900.398 40.994C900.986 40.9473 901.527 40.924 902.022 40.924C902.349 40.924 902.671 40.9333 902.988 40.952C903.305 40.9707 903.646 40.9987 904.01 41.036C903.963 41.8013 903.912 42.6693 903.856 43.64C903.809 44.6013 903.758 45.5953 903.702 46.622C903.655 47.6487 903.609 48.6567 903.562 49.646C903.515 50.626 903.478 51.5267 903.45 52.348C903.431 53.1693 903.422 53.8413 903.422 54.364C903.422 54.9987 903.45 55.6007 903.506 56.17C903.571 56.73 903.707 57.1873 903.912 57.542C904.117 57.8967 904.425 58.074 904.836 58.074C905.172 58.074 905.443 57.9993 905.648 57.85C905.853 57.6913 906.021 57.486 906.152 57.234C906.217 57.3367 906.315 57.5327 906.446 57.822C906.577 58.1113 906.717 58.4287 906.866 58.774C907.025 59.1193 907.165 59.432 907.286 59.712C907.407 59.992 907.482 60.174 907.51 60.258ZM916.002 61.35C913.538 61.35 911.694 60.6873 910.472 59.362C909.249 58.0273 908.638 56.1 908.638 53.58C908.638 51.9373 908.95 50.5607 909.576 49.45C910.21 48.3393 911.088 47.504 912.208 46.944C913.337 46.3747 914.639 46.09 916.114 46.09C917.644 46.09 918.909 46.44 919.908 47.14C920.916 47.84 921.667 48.8107 922.162 50.052C922.666 51.2933 922.918 52.7307 922.918 54.364C922.918 55.7733 922.647 57.0007 922.106 58.046C921.564 59.0913 920.78 59.9033 919.754 60.482C918.727 61.0607 917.476 61.35 916.002 61.35ZM915.862 57.836C916.459 57.836 916.977 57.7333 917.416 57.528C917.864 57.3133 918.237 57.0193 918.536 56.646C918.834 56.2633 919.054 55.8247 919.194 55.33C919.343 54.8353 919.418 54.308 919.418 53.748C919.418 52.8147 919.287 51.9887 919.026 51.27C918.764 50.5513 918.372 49.9913 917.85 49.59C917.336 49.1793 916.692 48.974 915.918 48.974C915.115 48.974 914.448 49.1747 913.916 49.576C913.393 49.9773 913.006 50.514 912.754 51.186C912.502 51.858 912.376 52.5907 912.376 53.384C912.376 54.6813 912.67 55.75 913.258 56.59C913.855 57.4207 914.723 57.836 915.862 57.836ZM919.628 49.072L919.096 47C919.842 47 920.426 46.86 920.846 46.58C921.275 46.2907 921.574 45.9033 921.742 45.418C921.919 44.9233 922.008 44.368 922.008 43.752C922.418 43.752 922.82 43.78 923.212 43.836C923.613 43.892 923.963 43.9667 924.262 44.06C924.57 44.1533 924.775 44.2513 924.878 44.354C924.878 45.2033 924.719 45.9313 924.402 46.538C924.084 47.1353 923.664 47.6207 923.142 47.994C922.628 48.3673 922.064 48.6427 921.448 48.82C920.832 48.988 920.225 49.072 919.628 49.072ZM918.2 40.056C918.582 40.2613 918.928 40.5133 919.236 40.812C919.553 41.1107 919.814 41.3953 920.02 41.666C920.234 41.9273 920.379 42.1187 920.454 42.24C920.136 42.352 919.763 42.506 919.334 42.702C918.914 42.898 918.475 43.1173 918.018 43.36C917.56 43.5933 917.117 43.8267 916.688 44.06C916.268 44.284 915.894 44.4893 915.568 44.676C915.25 44.8627 915.017 45.0027 914.868 45.096C914.802 45.0587 914.672 44.9933 914.476 44.9C914.289 44.8067 914.084 44.6993 913.86 44.578C913.645 44.4567 913.44 44.3353 913.244 44.214C913.057 44.0833 912.922 43.976 912.838 43.892C913.08 43.584 913.44 43.234 913.916 42.842C914.401 42.4407 914.919 42.044 915.47 41.652C916.02 41.26 916.543 40.9193 917.038 40.63C917.532 40.3313 917.92 40.14 918.2 40.056ZM930.736 61.182C930.484 61.1913 930.181 61.1913 929.826 61.182C929.472 61.182 929.108 61.182 928.734 61.182C928.426 61.1633 928.072 61.1447 927.67 61.126C927.278 61.1167 926.998 61.1027 926.83 61.084C926.924 60.3 926.998 59.4273 927.054 58.466C927.12 57.4953 927.171 56.4173 927.208 55.232C927.255 54.0467 927.288 52.7353 927.306 51.298C927.325 49.8513 927.334 48.26 927.334 46.524C927.652 46.4773 928.025 46.4447 928.454 46.426C928.884 46.398 929.313 46.384 929.742 46.384C930.05 46.384 930.344 46.3933 930.624 46.412C930.914 46.4213 931.166 46.4447 931.38 46.482C931.39 46.566 931.394 46.7387 931.394 47C931.394 47.2613 931.394 47.5507 931.394 47.868C931.394 48.176 931.39 48.4513 931.38 48.694C931.66 48.3393 932.085 47.966 932.654 47.574C933.233 47.1727 933.896 46.8367 934.642 46.566C935.398 46.2953 936.164 46.16 936.938 46.16C938.366 46.16 939.454 46.4447 940.2 47.014C940.956 47.5833 941.47 48.4327 941.74 49.562C942.02 50.6913 942.16 52.1007 942.16 53.79C942.16 54.406 942.142 55.1153 942.104 55.918C942.076 56.7113 942.025 57.5513 941.95 58.438C941.885 59.3153 941.801 60.1833 941.698 61.042C941.53 61.0607 941.264 61.0747 940.9 61.084C940.546 61.1027 940.168 61.112 939.766 61.112C939.356 61.112 938.959 61.1027 938.576 61.084C938.203 61.0747 937.923 61.0607 937.736 61.042C937.839 60.426 937.946 59.7167 938.058 58.914C938.18 58.102 938.278 57.2573 938.352 56.38C938.436 55.5027 938.478 54.6627 938.478 53.86C938.478 53.02 938.408 52.2873 938.268 51.662C938.138 51.0273 937.886 50.5373 937.512 50.192C937.139 49.8373 936.588 49.66 935.86 49.66C935.207 49.66 934.591 49.772 934.012 49.996C933.434 50.22 932.916 50.4907 932.458 50.808C932.001 51.1253 931.618 51.424 931.31 51.704C931.292 53.216 931.245 54.588 931.17 55.82C931.105 57.052 931.03 58.1207 930.946 59.026C930.872 59.9313 930.802 60.65 930.736 61.182ZM957.971 61.182C957.719 61.1913 957.415 61.1913 957.061 61.182C956.706 61.182 956.342 61.182 955.969 61.182C955.661 61.1633 955.306 61.1447 954.905 61.126C954.513 61.1167 954.233 61.1027 954.065 61.084C954.158 60.3 954.233 59.4273 954.289 58.466C954.354 57.4953 954.405 56.4173 954.443 55.232C954.489 54.0467 954.522 52.7353 954.541 51.298C954.559 49.8513 954.569 48.26 954.569 46.524C954.886 46.4773 955.259 46.4447 955.689 46.426C956.118 46.398 956.547 46.384 956.977 46.384C957.285 46.384 957.579 46.3933 957.859 46.412C958.148 46.4213 958.4 46.4447 958.615 46.482C958.624 46.566 958.629 46.7387 958.629 47C958.629 47.2613 958.629 47.5507 958.629 47.868C958.629 48.176 958.624 48.4513 958.615 48.694C958.895 48.3393 959.319 47.966 959.889 47.574C960.467 47.1727 961.13 46.8367 961.877 46.566C962.633 46.2953 963.398 46.16 964.173 46.16C965.601 46.16 966.688 46.4447 967.435 47.014C968.191 47.5833 968.704 48.4327 968.975 49.562C969.255 50.6913 969.395 52.1007 969.395 53.79C969.395 54.406 969.376 55.1153 969.339 55.918C969.311 56.7113 969.259 57.5513 969.185 58.438C969.119 59.3153 969.035 60.1833 968.933 61.042C968.765 61.0607 968.499 61.0747 968.135 61.084C967.78 61.1027 967.402 61.112 967.001 61.112C966.59 61.112 966.193 61.1027 965.811 61.084C965.437 61.0747 965.157 61.0607 964.971 61.042C965.073 60.426 965.181 59.7167 965.293 58.914C965.414 58.102 965.512 57.2573 965.587 56.38C965.671 55.5027 965.713 54.6627 965.713 53.86C965.713 53.02 965.643 52.2873 965.503 51.662C965.372 51.0273 965.12 50.5373 964.747 50.192C964.373 49.8373 963.823 49.66 963.095 49.66C962.441 49.66 961.825 49.772 961.247 49.996C960.668 50.22 960.15 50.4907 959.693 50.808C959.235 51.1253 958.853 51.424 958.545 51.704C958.526 53.216 958.479 54.588 958.405 55.82C958.339 57.052 958.265 58.1207 958.181 59.026C958.106 59.9313 958.036 60.65 957.971 61.182ZM976.396 61.196C976.2 61.224 975.929 61.2473 975.584 61.266C975.248 61.2847 974.893 61.294 974.52 61.294C974.109 61.294 973.717 61.2753 973.344 61.238C972.97 61.21 972.695 61.168 972.518 61.112C972.602 60.5147 972.672 59.7493 972.728 58.816C972.793 57.8827 972.844 56.8373 972.882 55.68C972.919 54.5227 972.938 53.314 972.938 52.054C972.938 50.8033 972.919 49.5387 972.882 48.26C972.844 46.9813 972.793 45.7493 972.728 44.564C972.672 43.3693 972.611 42.2773 972.546 41.288C972.62 41.26 972.807 41.2227 973.106 41.176C973.414 41.12 973.764 41.064 974.156 41.008C974.557 40.952 974.935 40.9053 975.29 40.868C975.644 40.8213 975.915 40.798 976.102 40.798C976.242 41.498 976.363 42.3473 976.466 43.346C976.578 44.3447 976.666 45.4367 976.732 46.622C976.806 47.798 976.858 49.016 976.886 50.276C977.203 49.912 977.609 49.576 978.104 49.268C978.608 48.9507 979.158 48.6987 979.756 48.512C980.353 48.3253 980.95 48.232 981.548 48.232C982.649 48.232 983.498 48.456 984.096 48.904C984.702 49.352 985.127 49.9913 985.37 50.822C985.612 51.6527 985.734 52.6513 985.734 53.818C985.734 54.5553 985.706 55.3533 985.65 56.212C985.594 57.0613 985.519 57.906 985.426 58.746C985.332 59.5767 985.234 60.3327 985.132 61.014C984.842 61.0513 984.539 61.0793 984.222 61.098C983.914 61.126 983.606 61.14 983.298 61.14C982.962 61.14 982.626 61.126 982.29 61.098C981.963 61.07 981.669 61.028 981.408 60.972C981.473 60.5427 981.543 60.048 981.618 59.488C981.692 58.9187 981.762 58.3353 981.828 57.738C981.893 57.1313 981.944 56.548 981.982 55.988C982.028 55.428 982.052 54.938 982.052 54.518C982.052 53.9113 981.996 53.3887 981.884 52.95C981.772 52.5113 981.58 52.1753 981.31 51.942C981.048 51.6993 980.68 51.578 980.204 51.578C979.802 51.578 979.42 51.6573 979.056 51.816C978.701 51.9747 978.374 52.1707 978.076 52.404C977.786 52.628 977.534 52.852 977.32 53.076C977.114 53.3 976.965 53.482 976.872 53.622C976.872 54.6113 976.848 55.6007 976.802 56.59C976.755 57.5793 976.694 58.48 976.62 59.292C976.554 60.104 976.48 60.7387 976.396 61.196ZM994.218 61.252C993.061 61.252 992.006 61.098 991.054 60.79C990.102 60.482 989.342 59.978 988.772 59.278C988.212 58.5687 987.932 57.6353 987.932 56.478C987.932 55.3207 988.254 54.3873 988.898 53.678C989.552 52.9593 990.415 52.4367 991.488 52.11C992.562 51.774 993.738 51.606 995.016 51.606C995.539 51.606 996.048 51.6433 996.542 51.718C997.037 51.7927 997.471 51.886 997.844 51.998C998.218 52.1007 998.479 52.1987 998.628 52.292C998.61 52.0213 998.558 51.7413 998.474 51.452C998.39 51.1627 998.264 50.9153 998.096 50.71C997.798 50.2527 997.373 49.87 996.822 49.562C996.281 49.254 995.576 49.1 994.708 49.1C993.822 49.1 993.052 49.296 992.398 49.688C991.745 50.08 991.255 50.5327 990.928 51.046L987.89 49.086C988.31 48.4887 988.87 47.9613 989.57 47.504C990.27 47.0467 991.068 46.692 991.964 46.44C992.86 46.1787 993.812 46.048 994.82 46.048C996.444 46.048 997.77 46.328 998.796 46.888C999.823 47.448 1000.58 48.2133 1001.06 49.184C1001.3 49.66 1001.49 50.1827 1001.64 50.752C1001.79 51.3213 1001.89 51.9933 1001.93 52.768C1001.96 53.4867 1001.98 54.1353 1002 54.714C1002.02 55.2927 1002.04 55.82 1002.07 56.296C1002.09 56.9773 1002.17 57.4207 1002.31 57.626C1002.46 57.822 1002.66 57.92 1002.91 57.92C1003.18 57.92 1003.42 57.8313 1003.61 57.654C1003.81 57.4767 1003.93 57.234 1003.98 56.926L1005.39 59.278C1005.31 59.8287 1005.02 60.272 1004.54 60.608C1004.05 60.9347 1003.46 61.098 1002.76 61.098C1002.23 61.098 1001.74 61.0047 1001.29 60.818C1000.84 60.622 1000.47 60.37 1000.18 60.062C999.902 59.7447 999.739 59.3993 999.692 59.026C999.524 59.3713 999.193 59.7167 998.698 60.062C998.204 60.4073 997.578 60.692 996.822 60.916C996.066 61.14 995.198 61.252 994.218 61.252ZM995.002 58.326C995.497 58.326 995.996 58.2513 996.5 58.102C997.004 57.9527 997.462 57.7567 997.872 57.514C998.292 57.2713 998.624 57.0193 998.866 56.758C998.848 56.366 998.834 55.9927 998.824 55.638C998.824 55.2833 998.829 54.9707 998.838 54.7C998.614 54.616 998.18 54.518 997.536 54.406C996.902 54.2847 996.216 54.224 995.478 54.224C994.825 54.224 994.218 54.3033 993.658 54.462C993.108 54.6113 992.66 54.84 992.314 55.148C991.978 55.4467 991.81 55.8247 991.81 56.282C991.81 56.8047 991.941 57.2153 992.202 57.514C992.473 57.8127 992.846 58.0227 993.322 58.144C993.808 58.2653 994.368 58.326 995.002 58.326ZM998.544 45.544C998.311 45.264 998.04 44.9607 997.732 44.634C997.424 44.298 997.121 43.976 996.822 43.668C996.524 43.3507 996.262 43.08 996.038 42.856C995.824 42.632 995.688 42.492 995.632 42.436H995.996C995.903 42.5013 995.721 42.646 995.45 42.87C995.189 43.0847 994.886 43.3413 994.54 43.64C994.195 43.9293 993.845 44.228 993.49 44.536C993.136 44.8347 992.823 45.1053 992.552 45.348C992.338 45.2733 992.067 45.1473 991.74 44.97C991.414 44.7927 991.092 44.5967 990.774 44.382C990.457 44.158 990.191 43.9527 989.976 43.766C990.396 43.4393 990.835 43.1033 991.292 42.758C991.759 42.4033 992.212 42.0673 992.65 41.75C993.089 41.4233 993.481 41.1387 993.826 40.896C994.181 40.644 994.452 40.4667 994.638 40.364C994.788 40.3547 995.021 40.35 995.338 40.35C995.656 40.3407 995.982 40.336 996.318 40.336C996.654 40.3267 996.911 40.3267 997.088 40.336C997.462 40.672 997.886 41.0733 998.362 41.54C998.838 41.9973 999.314 42.4593 999.79 42.926C1000.28 43.3927 1000.7 43.8173 1001.05 44.2C1000.63 44.4987 1000.2 44.7693 999.748 45.012C999.3 45.2453 998.899 45.4227 998.544 45.544ZM1000.11 40.994C1000.02 40.9567 999.842 40.8727 999.58 40.742C999.328 40.602 999.067 40.4527 998.796 40.294C998.526 40.1353 998.33 40.0093 998.208 39.916C998.432 39.692 998.745 39.4213 999.146 39.104C999.548 38.7867 999.972 38.4693 1000.42 38.152C1000.88 37.8253 1001.31 37.5407 1001.71 37.298C1002.12 37.0553 1002.44 36.892 1002.66 36.808C1002.81 36.892 1002.99 37.0227 1003.21 37.2C1003.43 37.368 1003.66 37.5547 1003.89 37.76C1004.13 37.956 1004.32 38.1473 1004.48 38.334C1004.65 38.5113 1004.76 38.6467 1004.8 38.74C1004.57 38.8053 1004.23 38.936 1003.78 39.132C1003.33 39.3187 1002.86 39.5333 1002.37 39.776C1001.87 40.0187 1001.41 40.252 1000.99 40.476C1000.58 40.6907 1000.29 40.8633 1000.11 40.994ZM1017.67 58.914C1017.5 59.2873 1017.24 59.6887 1016.88 60.118C1016.54 60.538 1016.08 60.8927 1015.51 61.182C1014.94 61.4807 1014.23 61.63 1013.38 61.63C1012.28 61.63 1011.39 61.3967 1010.71 60.93C1010.03 60.4633 1009.53 59.8427 1009.21 59.068C1008.9 58.284 1008.75 57.43 1008.75 56.506C1008.75 56.0113 1008.75 55.47 1008.76 54.882C1008.78 54.2847 1008.8 53.6827 1008.82 53.076C1008.84 52.46 1008.86 51.8767 1008.88 51.326C1008.9 50.7753 1008.93 50.29 1008.95 49.87C1008.97 49.4407 1008.99 49.114 1009 48.89C1008.21 48.974 1007.49 49.0673 1006.85 49.17C1006.2 49.2633 1005.77 49.3333 1005.56 49.38C1005.47 48.9413 1005.41 48.484 1005.36 48.008C1005.32 47.532 1005.3 47.1167 1005.28 46.762C1005.26 46.4073 1005.25 46.1833 1005.25 46.09C1005.78 46.0153 1006.37 45.9453 1007.01 45.88C1007.66 45.8053 1008.32 45.7493 1009 45.712C1008.99 45.4413 1008.98 45.0587 1008.97 44.564C1008.97 44.0693 1008.97 43.6167 1008.96 43.206C1008.95 42.842 1008.93 42.4827 1008.9 42.128C1008.88 41.764 1008.85 41.4653 1008.83 41.232L1012.47 40.938C1012.47 41.0593 1012.48 41.3487 1012.49 41.806C1012.51 42.254 1012.52 42.7953 1012.52 43.43C1012.52 43.71 1012.52 44.046 1012.52 44.438C1012.52 44.8207 1012.53 45.1847 1012.53 45.53C1012.84 45.5113 1013.2 45.4927 1013.61 45.474C1014.02 45.4553 1014.34 45.4413 1014.59 45.432C1015 45.4133 1015.38 45.404 1015.72 45.404C1016.07 45.404 1016.36 45.4087 1016.59 45.418C1016.82 45.418 1016.98 45.418 1017.05 45.418C1017.11 45.8007 1017.14 46.2953 1017.15 46.902C1017.17 47.4993 1017.18 48.0173 1017.18 48.456C1017.08 48.4467 1016.78 48.4467 1016.25 48.456C1015.73 48.4653 1015.22 48.4793 1014.71 48.498C1014.35 48.5073 1013.95 48.526 1013.52 48.554C1013.09 48.582 1012.74 48.61 1012.47 48.638C1012.46 48.8433 1012.45 49.142 1012.43 49.534C1012.41 49.9167 1012.39 50.3507 1012.38 50.836C1012.37 51.312 1012.35 51.802 1012.33 52.306C1012.31 52.81 1012.3 53.2907 1012.29 53.748C1012.28 54.2053 1012.28 54.5973 1012.28 54.924C1012.28 55.5307 1012.31 56.086 1012.38 56.59C1012.44 57.094 1012.59 57.5 1012.81 57.808C1013.04 58.1067 1013.4 58.256 1013.89 58.256C1014.21 58.256 1014.48 58.1533 1014.7 57.948C1014.91 57.7427 1015.09 57.5047 1015.22 57.234C1015.36 56.9633 1015.47 56.7253 1015.57 56.52C1015.67 56.66 1015.82 56.8513 1016.03 57.094C1016.23 57.3273 1016.45 57.57 1016.67 57.822C1016.91 58.074 1017.11 58.3027 1017.29 58.508C1017.48 58.704 1017.6 58.8393 1017.67 58.914Z" fill="#F1692F"/>
<path d="M279.144 33.8112C279.457 34.9812 280.52 35.7503 281.678 35.7401C282.08 35.7366 282.429 36.0179 282.533 36.4061L282.82 37.4784C282.924 37.8665 282.762 38.2846 282.413 38.4825C281.405 39.0523 280.869 40.2498 281.183 41.4198C281.496 42.5898 282.559 43.3589 283.717 43.3487C284.118 43.3452 284.467 43.6266 284.571 44.0148L284.859 45.087C284.963 45.4751 284.801 45.8932 284.451 46.0912C283.444 46.661 282.908 47.8585 283.221 49.0285C283.535 50.1985 284.598 50.9675 285.755 50.9574C286.157 50.9538 286.506 51.2352 286.61 51.6234L286.776 52.2434C287.117 53.5167 286.056 54.7289 284.749 54.56C267.925 52.3856 262.568 50.6584 232.205 58.5911C230.42 59.0574 228.592 57.9958 228.114 56.2137C228.01 55.8256 228.172 55.4075 228.522 55.2095C229.529 54.6396 230.065 53.4421 229.752 52.2721C229.438 51.1021 228.375 50.3331 227.218 50.3432C226.816 50.3468 226.467 50.0654 226.363 49.6773L226.076 48.6052C225.972 48.2171 226.133 47.799 226.483 47.601C227.49 47.031 228.026 45.8335 227.713 44.6635C227.399 43.4935 226.337 42.7245 225.179 42.7346C224.777 42.7382 224.428 42.4568 224.324 42.0686L224.037 40.9965C223.933 40.6084 224.094 40.1902 224.444 39.9923C225.452 39.4223 225.988 38.2248 225.674 37.0548C225.361 35.8848 224.298 35.1157 223.14 35.1259C222.738 35.1294 222.389 34.848 222.285 34.4599L221.998 33.3878C221.894 32.9997 222.056 32.5816 222.405 32.3837C223.413 31.8136 223.949 30.6161 223.635 29.4461C223.398 28.5614 222.733 27.906 221.922 27.6434C221.322 27.4493 221.093 26.7077 221.485 26.2144C221.922 25.6645 222.534 25.2465 223.267 25.0561C246.881 18.9195 256.005 18.7986 268.7 20.1961C274.312 20.814 279.016 24.6464 280.777 29.9565C280.891 30.3004 280.742 30.6751 280.423 30.8467C279.384 31.4054 278.825 32.6224 279.144 33.8112Z" fill="url(#paint0_linear_1209_12171)"/>
<path d="M351.53 73.0907C351.745 72.2889 352.473 71.7619 353.267 71.7689C353.542 71.7713 353.781 71.5785 353.853 71.3125L354.049 70.5777C354.121 70.3117 354.01 70.0252 353.77 69.8895C353.08 69.4991 352.713 68.6785 352.927 67.8767C353.142 67.0749 353.871 66.5479 354.664 66.5548C354.939 66.5573 355.178 66.3645 355.25 66.0984L355.447 65.3637C355.518 65.0977 355.407 64.8111 355.167 64.6755C354.477 64.285 354.11 63.4644 354.324 62.6626C354.539 61.8609 355.268 61.3339 356.061 61.3408C356.336 61.3432 356.575 61.1504 356.647 60.8844L356.761 60.4595C356.994 59.5869 356.267 58.7562 355.371 58.872C343.842 60.3621 340.171 61.5457 319.364 56.1096C318.141 55.79 316.888 56.5175 316.561 57.7387C316.49 58.0047 316.6 58.2912 316.84 58.4269C317.53 58.8174 317.898 59.638 317.683 60.4398C317.468 61.2416 316.74 61.7686 315.946 61.7617C315.671 61.7592 315.432 61.952 315.361 62.218L315.164 62.9527C315.092 63.2187 315.203 63.5052 315.443 63.6408C316.133 64.0315 316.501 64.8521 316.286 65.6539C316.071 66.4556 315.343 66.9827 314.549 66.9757C314.274 66.9733 314.035 67.1661 313.963 67.4321L313.767 68.1668C313.695 68.4328 313.806 68.7193 314.046 68.855C314.736 69.2456 315.103 70.0662 314.889 70.868C314.674 71.6697 313.945 72.1968 313.152 72.1898C312.877 72.1874 312.638 72.3802 312.566 72.6462L312.37 73.3808C312.298 73.6468 312.409 73.9334 312.649 74.069C313.339 74.4596 313.706 75.2802 313.492 76.082C313.329 76.6883 312.873 77.1375 312.317 77.3174C311.906 77.4504 311.749 77.9586 312.018 78.2967C312.317 78.6735 312.737 78.96 313.239 79.0904C329.421 83.2957 335.674 83.3785 344.373 82.4208C348.219 81.9974 351.443 79.3712 352.649 75.7323C352.728 75.4966 352.625 75.2398 352.407 75.1222C351.695 74.7394 351.312 73.9054 351.53 73.0907Z" fill="#5B7B3A"/>
<path d="M1139.65 52.2665C1139.4 51.6471 1138.78 51.2949 1138.16 51.3747C1137.94 51.4024 1137.74 51.271 1137.66 51.0654L1137.43 50.4978C1137.35 50.2923 1137.41 50.0534 1137.59 49.9228C1138.1 49.5468 1138.31 48.8579 1138.07 48.2385C1137.82 47.6192 1137.2 47.2669 1136.58 47.3467C1136.36 47.3744 1136.16 47.243 1136.08 47.0374L1135.86 46.4698C1135.78 46.2644 1135.84 46.0255 1136.01 45.8949C1136.52 45.5188 1136.73 44.83 1136.49 44.2106C1136.25 43.5912 1135.63 43.239 1135 43.3187C1134.79 43.3464 1134.58 43.215 1134.5 43.0095L1134.37 42.6812C1134.11 42.0071 1134.6 41.2766 1135.32 41.2851C1144.52 41.3952 1147.51 41.9958 1163.36 35.7137C1164.29 35.3444 1165.35 35.8075 1165.72 36.7509C1165.8 36.9564 1165.74 37.1953 1165.56 37.3259C1165.05 37.702 1164.84 38.3908 1165.08 39.0102C1165.33 39.6296 1165.95 39.9818 1166.57 39.9021C1166.79 39.8744 1166.99 40.0058 1167.07 40.2113L1167.29 40.7789C1167.38 40.9843 1167.31 41.2232 1167.14 41.3538C1166.63 41.73 1166.42 42.4188 1166.66 43.0382C1166.9 43.6576 1167.53 44.0098 1168.15 43.9301C1168.36 43.9024 1168.57 44.0338 1168.65 44.2393L1168.87 44.8069C1168.95 45.0124 1168.89 45.2513 1168.72 45.3819C1168.21 45.758 1168 46.4469 1168.24 47.0663C1168.48 47.6857 1169.1 48.0379 1169.73 47.9581C1169.94 47.9304 1170.15 48.0619 1170.23 48.2673L1170.45 48.8349C1170.53 49.0404 1170.47 49.2793 1170.3 49.4099C1169.79 49.786 1169.58 50.4749 1169.82 51.0943C1170 51.5626 1170.4 51.8782 1170.86 51.9698C1171.19 52.0374 1171.36 52.428 1171.18 52.7228C1170.98 53.0514 1170.68 53.3191 1170.3 53.4701C1157.96 58.3379 1153.06 58.9888 1146.13 59.0387C1143.07 59.0607 1140.29 57.2676 1139.01 54.4781C1138.93 54.2974 1138.98 54.0831 1139.14 53.9688C1139.67 53.5969 1139.89 52.8959 1139.65 52.2665Z" fill="url(#paint1_linear_1209_12171)"/>
<path d="M251.182 47.2097C250.541 47.0374 250.202 46.3768 250.425 45.7345L256.156 29.1952C256.378 28.5529 257.078 28.1716 257.719 28.3442C258.36 28.5166 258.698 29.1771 258.476 29.8194L252.745 46.3586C252.522 47.0011 251.822 47.3821 251.182 47.2097Z" fill="white"/>
<path d="M249.778 37.2018C247.476 37.5041 245.469 35.752 245.304 33.2959C245.14 30.8399 246.88 28.5958 249.183 28.2935C251.486 27.9911 253.493 29.7433 253.657 32.1992C253.821 34.6553 252.081 36.8994 249.778 37.2018ZM249.339 30.6223C248.378 30.7484 247.66 31.8044 247.739 32.9763C247.817 34.1483 248.662 34.9991 249.623 34.873C250.583 34.7468 251.301 33.6908 251.223 32.5188C251.144 31.347 250.299 30.4962 249.339 30.6223Z" fill="white"/>
<path d="M259.527 47.6167C257.225 47.919 255.218 46.1669 255.053 43.7109C254.889 41.255 256.629 39.0109 258.932 38.7085C261.235 38.4062 263.242 40.1583 263.406 42.6143C263.57 45.0702 261.83 47.3143 259.527 47.6167ZM259.088 41.0372C258.127 41.1633 257.409 42.2193 257.488 43.3912C257.566 44.5631 258.411 45.4139 259.372 45.2878C260.332 45.1616 261.05 44.1056 260.972 42.9338C260.893 41.7619 260.048 40.9111 259.088 41.0372Z" fill="white"/>
<path d="M330.483 76.7613C330.074 76.5067 329.926 76.0125 330.152 75.6575L335.965 66.5164C336.19 66.1614 336.705 66.0797 337.113 66.3345C337.522 66.5891 337.67 67.0833 337.444 67.4383L331.631 76.5793C331.406 76.9345 330.891 77.0158 330.483 76.7613Z" fill="white"/>
<path d="M331.1 70.3565C329.545 70.0238 328.426 68.4753 328.604 66.9044C328.783 65.3336 330.193 64.3263 331.748 64.6589C333.303 64.9916 334.422 66.5402 334.244 68.1109C334.065 69.6818 332.655 70.6891 331.1 70.3565ZM331.578 66.1484C330.93 66.0096 330.333 66.5065 330.248 67.256C330.163 68.0056 330.621 68.7282 331.27 68.867C331.918 69.0058 332.515 68.5089 332.6 67.7593C332.685 67.0098 332.227 66.2871 331.578 66.1484Z" fill="white"/>
<path d="M335.67 78.6347C334.115 78.3021 332.995 76.7535 333.173 75.1827C333.352 73.6119 334.762 72.6046 336.317 72.9373C337.872 73.2699 338.992 74.8185 338.813 76.3893C338.635 77.96 337.225 78.9674 335.67 78.6347ZM336.148 74.4266C335.499 74.2879 334.902 74.7848 334.817 75.5343C334.732 76.2838 335.19 77.0064 335.839 77.1452C336.487 77.2839 337.084 76.787 337.17 76.0376C337.255 75.288 336.796 74.5654 336.148 74.4266Z" fill="white"/>
<path d="M1152.53 53.9947C1152.14 53.9923 1151.88 53.684 1151.95 53.3061L1153.82 43.5756C1153.9 43.1977 1154.28 42.8931 1154.67 42.8956C1155.06 42.8979 1155.32 43.2062 1155.25 43.5841L1153.38 53.3145C1153.3 53.6926 1152.93 53.9971 1152.53 53.9947Z" fill="white"/>
<path d="M1150.88 48.5167C1149.57 48.9989 1148.26 48.3513 1147.95 47.073C1147.63 45.7948 1148.44 44.3626 1149.74 43.8804C1151.05 43.3982 1152.36 44.0458 1152.67 45.324C1152.99 46.6023 1152.18 48.0345 1150.88 48.5167ZM1150.04 45.0924C1149.5 45.2936 1149.17 45.9534 1149.32 46.5633C1149.47 47.1733 1150.04 47.5058 1150.58 47.3047C1151.12 47.1036 1151.45 46.4437 1151.3 45.8338C1151.15 45.2239 1150.58 44.8913 1150.04 45.0924Z" fill="white"/>
<path d="M1157.39 53.2295C1156.09 53.7118 1154.78 53.0643 1154.46 51.786C1154.15 50.5077 1154.96 49.0754 1156.26 48.593C1157.56 48.1107 1158.88 48.7583 1159.19 50.0365C1159.5 51.3148 1158.7 52.7472 1157.39 53.2295ZM1156.56 49.8051C1156.01 50.0062 1155.69 50.6662 1155.84 51.2761C1155.99 51.886 1156.55 52.2185 1157.1 52.0174C1157.64 51.8162 1157.96 51.1562 1157.81 50.5463C1157.66 49.9364 1157.1 49.6039 1156.56 49.8051Z" fill="white"/>
<g clip-path="url(#clip0_1209_12171)">
<path d="M1089.74 15.758C1086.09 13.5245 1081.31 14.663 1079.06 18.3011C1076.82 21.9392 1077.96 26.699 1081.61 28.9325L1088.23 32.9767L1092.29 26.3894C1094.54 22.7513 1093.4 17.9915 1089.74 15.758ZM1086.6 26.2112L1084.2 24.7406C1082.87 23.9297 1082.46 22.1955 1083.27 20.8746C1084.09 19.5537 1085.83 19.1389 1087.16 19.9498C1088.48 20.7607 1088.9 22.4949 1088.08 23.8158L1086.6 26.2112Z" fill="url(#paint2_linear_1209_12171)"/>
<path d="M1107.06 26.3615C1103.41 24.128 1098.62 25.2666 1096.38 28.9046L1092.31 35.4919L1098.93 39.536C1102.58 41.7695 1107.36 40.631 1109.61 36.9929C1111.86 33.3549 1110.71 28.595 1107.06 26.3615ZM1101.51 35.3442L1099.11 33.8736L1100.59 31.4782C1101.4 30.1573 1103.15 29.7425 1104.47 30.5534C1105.8 31.3643 1106.21 33.0985 1105.4 34.4194C1104.58 35.7403 1102.84 36.1551 1101.51 35.3442Z" fill="url(#paint3_linear_1209_12171)"/>
<path d="M1105.02 52.5046L1059.01 41.9863L1052.41 71.1307C1051.53 74.9761 1053.96 78.8083 1057.81 79.6903L1068.04 82.0272L1074.39 80.8753L1079.63 84.678L1089.85 87.0148C1093.71 87.8968 1097.54 85.4944 1098.42 81.649L1105.02 52.5046Z" fill="#A5DB6E"/>
<path d="M1105.02 52.5046L1059.01 41.9863L1052.41 71.1307C1051.53 74.9761 1053.96 78.8083 1057.81 79.6903L1068.04 82.0272L1074.39 80.8753L1079.63 84.678L1089.85 87.0148C1093.71 87.8968 1097.54 85.4944 1098.42 81.649L1105.02 52.5046Z" fill="url(#paint4_linear_1209_12171)" fill-opacity="0.3"/>
<path d="M1059.88 72.8421L1066.48 43.7095L1059 42L1052.4 71.1326C1051.53 74.9764 1053.95 78.8068 1057.81 79.688L1065.28 81.3975C1061.43 80.5164 1059.01 76.686 1059.88 72.8421Z" fill="url(#paint5_linear_1209_12171)"/>
<path d="M1076.22 45.9297L1087.8 48.5775L1079.63 84.6685L1068.04 82.0207L1076.22 45.9297Z" fill="url(#paint6_linear_1209_12171)"/>
<path d="M1093.32 36.1125L1087.21 32.3794L1090.03 27.818C1090.55 26.979 1091.65 26.7169 1092.49 27.2327L1095.54 29.098C1096.39 29.6138 1096.65 30.712 1096.13 31.551L1093.32 36.1125Z" fill="#F4B71A"/>
<path d="M1104.35 58.6583C1089.32 51.6201 1075.14 42.9483 1062.03 32.7799C1059.62 30.9094 1059.26 27.3909 1061.17 24.993C1062.2 23.6993 1063.22 22.4055 1064.24 21.1118C1066.16 18.7122 1069.49 18.2321 1071.73 19.9727C1084.03 29.5147 1097.34 37.6524 1111.44 44.257C1114.02 45.4636 1115.09 48.6388 1113.81 51.4228C1113.11 52.9164 1112.42 54.41 1111.72 55.9036C1110.44 58.6858 1107.12 59.9545 1104.35 58.6583Z" fill="#9CD85E"/>
<path d="M1104.35 58.6583C1089.32 51.6201 1075.14 42.9483 1062.03 32.7799C1059.62 30.9094 1059.26 27.3909 1061.17 24.993C1062.2 23.6993 1063.22 22.4055 1064.24 21.1118C1066.16 18.7122 1069.49 18.2321 1071.73 19.9727C1084.03 29.5147 1097.34 37.6524 1111.44 44.257C1114.02 45.4636 1115.09 48.6388 1113.81 51.4228C1113.11 52.9164 1112.42 54.41 1111.72 55.9036C1110.44 58.6858 1107.12 59.9545 1104.35 58.6583Z" fill="url(#paint7_linear_1209_12171)" fill-opacity="0.2"/>
<path d="M1068.83 37.8016C1066.42 35.9334 1066.06 32.42 1067.97 30.0261C1068.99 28.7344 1070.02 27.4428 1071.04 26.1511C1072.84 23.8879 1075.91 23.3368 1078.14 24.7481C1075.97 23.1957 1073.83 21.6025 1071.72 19.9669C1069.48 18.2283 1066.15 18.707 1064.24 21.1027C1063.22 22.3943 1062.2 23.686 1061.17 24.9776C1059.26 27.3716 1059.63 30.885 1062.04 32.7532C1064.39 34.5751 1066.77 36.3482 1069.19 38.0732C1069.07 37.9825 1068.95 37.8925 1068.83 37.8016Z" fill="url(#paint8_linear_1209_12171)"/>
<path d="M1080.72 37.9977C1079.89 39.3423 1077.84 39.5935 1076.15 38.5588C1074.45 37.5239 1073.75 35.5949 1074.58 34.2502C1075.41 32.9056 1077.46 32.6543 1079.15 33.6892C1080.85 34.7239 1081.55 36.653 1080.72 37.9977Z" fill="#EEBBBB"/>
<path d="M1091.23 44.4416C1090.4 45.7863 1091.1 47.7154 1092.79 48.7501C1094.48 49.785 1096.53 49.5337 1097.36 48.189C1098.19 46.8443 1097.49 44.9154 1095.8 43.8804C1094.11 42.8458 1092.06 43.097 1091.23 44.4416Z" fill="#EEBBBB"/>
<path d="M1080.43 35.6159C1080.02 35.3661 1079.89 34.8339 1080.14 34.4269L1080.91 33.1782C1081.16 32.7712 1081.7 32.6438 1082.11 32.8936C1082.51 33.1434 1082.64 33.6756 1082.39 34.0826L1081.62 35.3313C1081.37 35.7382 1080.83 35.8656 1080.43 35.6159Z" fill="white"/>
<path d="M1093.49 43.6169C1093.08 43.3671 1092.95 42.8349 1093.21 42.4279L1093.98 41.1791C1094.23 40.7722 1094.76 40.6448 1095.17 40.8946C1095.58 41.1444 1095.71 41.6765 1095.46 42.0835L1094.69 43.3323C1094.43 43.7392 1093.9 43.8667 1093.49 43.6169Z" fill="white"/>
<path d="M1086.5 40.3621C1085.62 39.8277 1085.03 38.9423 1084.86 37.9328C1084.78 37.461 1085.1 37.0146 1085.57 36.9357C1086.05 36.8567 1086.5 37.175 1086.57 37.6469C1086.66 38.1621 1086.97 38.6137 1087.41 38.8858C1087.86 39.1578 1088.4 39.2242 1088.9 39.0677C1089.36 38.9245 1089.85 39.1785 1089.99 39.6347C1090.13 40.0912 1089.88 40.5772 1089.42 40.7204C1088.44 41.0269 1087.37 40.8963 1086.5 40.3621Z" fill="white"/>
</g>
<defs>
<linearGradient id="paint0_linear_1209_12171" x1="246.341" y1="12.7883" x2="255.536" y2="47.1036" gradientUnits="userSpaceOnUse">
<stop stop-color="#FEF0AE"/>
<stop offset="1" stop-color="#FAC600"/>
</linearGradient>
<linearGradient id="paint1_linear_1209_12171" x1="1165.92" y1="29.2529" x2="1157.23" y2="58.5803" gradientUnits="userSpaceOnUse">
<stop stop-color="#FEED9F"/>
<stop offset="1" stop-color="#F3B619"/>
</linearGradient>
<linearGradient id="paint2_linear_1209_12171" x1="1089.74" y1="15.758" x2="1081.67" y2="28.9679" gradientUnits="userSpaceOnUse">
<stop stop-color="#FFEC9C"/>
<stop offset="1" stop-color="#FDD641"/>
</linearGradient>
<linearGradient id="paint3_linear_1209_12171" x1="1107.06" y1="26.3615" x2="1098.98" y2="39.5714" gradientUnits="userSpaceOnUse">
<stop stop-color="#FEEC9E"/>
<stop offset="1" stop-color="#FCCF27"/>
</linearGradient>
<linearGradient id="paint4_linear_1209_12171" x1="1097.64" y1="97.3792" x2="1070.15" y2="38.6897" gradientUnits="userSpaceOnUse">
<stop/>
<stop offset="1" stop-opacity="0"/>
</linearGradient>
<linearGradient id="paint5_linear_1209_12171" x1="1059.84" y1="84.4261" x2="1064.06" y2="30.1695" gradientUnits="userSpaceOnUse">
<stop stop-color="#5B7B3A"/>
<stop offset="1" stop-color="#5B7B3A" stop-opacity="0"/>
</linearGradient>
<linearGradient id="paint6_linear_1209_12171" x1="1078.63" y1="44.2144" x2="1073.77" y2="83.3367" gradientUnits="userSpaceOnUse">
<stop stop-color="#FEF0AE"/>
<stop offset="1" stop-color="#FBCD22"/>
</linearGradient>
<linearGradient id="paint7_linear_1209_12171" x1="1086.12" y1="49.3098" x2="1065.1" y2="1.90672" gradientUnits="userSpaceOnUse">
<stop/>
<stop offset="1" stop-opacity="0"/>
</linearGradient>
<linearGradient id="paint8_linear_1209_12171" x1="1072.42" y1="20.3541" x2="1063.65" y2="34.69" gradientUnits="userSpaceOnUse">
<stop stop-color="#5B7B3A"/>
<stop offset="1" stop-color="#5B7B3A" stop-opacity="0"/>
</linearGradient>
<clipPath id="clip0_1209_12171">
<rect width="61.8303" height="73.0722" fill="white" transform="translate(1065.31 6) rotate(17.7762)"/>
</clipPath>
</defs>
</svg>
